<svg width="12" height="18" viewBox="0 0 12 18" fill="none" xmlns="http://www.w3.org/2000/svg">
<path d="M5.56607 11.9955C5.56607 12.0045 5.56607 12.0093 5.56055 12.0183V11.9775C5.56607 11.981 5.56607 11.99 5.56607 11.9955Z" fill="url(#paint0_linear_3782_9215)"/>
<path d="M5.56607 11.9955C5.56607 12.0045 5.56607 12.0093 5.56055 12.0183V11.9775C5.56607 11.981 5.56607 11.99 5.56607 11.9955Z" fill="url(#paint1_linear_3782_9215)"/>
<path d="M8.87874 12.1963V12.9411C8.87874 13.3121 8.57329 13.6176 8.20226 13.6176H6.73633V12.1963L8.87874 12.1963Z" fill="url(#paint2_linear_3782_9215)"/>
<path d="M5.15804 12.1963V13.6176H3.69211C3.3211 13.6176 3.01562 13.3121 3.01562 12.9411V12.1963L5.15804 12.1963Z" fill="url(#paint3_linear_3782_9215)"/>
<path d="M6.32825 10.5839V13.619H5.5625V12.0192C5.56808 12.0101 5.56808 12.0052 5.56808 11.9962C5.56808 11.9906 5.56808 11.9822 5.5625 11.978V10.5839C5.5625 10.3733 5.73755 10.1982 5.94817 10.1982C6.15879 10.1982 6.32825 10.3733 6.32825 10.5839Z" fill="url(#paint4_linear_3782_9215)"/>
<path d="M8.07157 2.28542L3.82227 2.28542C4.65077 1.04962 5.61815 0.251734 5.94647 0C6.27355 0.251769 7.24659 1.04959 8.07157 2.28542Z" fill="url(#paint5_linear_3782_9215)"/>
<path d="M2.65819 11.3799C1.70274 11.6351 0.84767 12.2049 0.237439 12.9846C0.219307 12.8277 0.210938 12.6666 0.210938 12.5096C0.210938 11.0081 1.03038 9.61899 2.32693 8.88379C2.4155 9.67673 2.53334 10.5284 2.65819 11.3799Z" fill="url(#paint6_linear_3782_9215)"/>
<path d="M11.6889 12.5095C11.6889 12.6664 11.6799 12.8275 11.6624 12.9844C11.048 12.204 10.193 11.635 9.23828 11.3797C9.3687 10.5282 9.48098 9.67664 9.57373 8.88379C10.8646 9.61885 11.689 11.008 11.689 12.5096L11.6889 12.5095Z" fill="url(#paint7_linear_3782_9215)"/>
<path d="M8.32815 2.68849L3.56842 2.68849C2.97772 3.68298 2.50977 4.92018 2.50977 6.35059C2.50977 6.73626 2.57741 7.53408 2.69387 8.54675V8.56488C2.79708 9.48405 2.93098 10.4966 3.08859 11.5016V11.5281L3.13323 11.7924H5.15995V10.5817C5.15995 10.1459 5.51354 9.79228 5.94941 9.79228C6.38529 9.79228 6.73887 10.1459 6.73887 10.5817V11.7924H8.76899L8.81014 11.5316C8.81014 11.5225 8.81572 11.5086 8.81572 11.4995C8.96775 10.4911 9.10653 9.4694 9.21044 8.54459C9.32272 7.53196 9.38897 6.73407 9.38897 6.34844C9.38479 4.92573 8.91885 3.68507 8.32815 2.68849ZM5.94793 8.15397C4.81815 8.15397 3.89478 7.23061 3.89478 6.10082C3.89478 4.97104 4.81815 4.04768 5.94793 4.04768C7.07772 4.04768 8.00108 4.97104 8.00108 6.10082C8.00108 7.23061 7.07632 8.15397 5.94793 8.15397Z" fill="url(#paint8_linear_3782_9215)"/>
<path d="M7.59362 6.10053C7.59362 7.01134 6.85786 7.74499 5.94915 7.74499C5.03834 7.74499 4.30469 7.00923 4.30469 6.10053C4.30469 5.18972 5.04045 4.45117 5.94915 4.45117C6.85786 4.45048 7.59362 5.18972 7.59362 6.10053Z" fill="url(#paint9_linear_3782_9215)"/>
<path d="M7.46767 14.0186V14.5291C7.46767 14.5472 7.45372 14.5611 7.43558 14.5611H4.45424C4.44029 14.5611 4.42773 14.5472 4.42773 14.5291V14.0186H7.46767Z" fill="url(#paint10_linear_3782_9215)"/>
<path d="M6.79373 15.5521C6.79373 16.2195 6.28323 17.8514 5.9457 17.8514C5.60816 17.8514 5.09766 16.2195 5.09766 15.5521C5.09766 15.3268 5.18344 15.1218 5.33477 14.9648H6.55382C6.71004 15.1218 6.79373 15.3324 6.79373 15.5521Z" fill="url(#paint11_linear_3782_9215)"/>
<defs>
<linearGradient id="paint0_linear_3782_9215" x1="5.56055" y1="11.9979" x2="5.56599" y2="11.9979" gradientUnits="userSpaceOnUse">
<stop stop-color="#7E43DE"/>
<stop offset="1" stop-color="#4473E9"/>
</linearGradient>
<linearGradient id="paint1_linear_3782_9215" x1="5.56055" y1="11.9979" x2="5.56599" y2="11.9979" gradientUnits="userSpaceOnUse">
<stop stop-color="#7E43DE"/>
<stop offset="1" stop-color="#4473E9"/>
</linearGradient>
<linearGradient id="paint2_linear_3782_9215" x1="6.73633" y1="12.9069" x2="8.84561" y2="12.9069" gradientUnits="userSpaceOnUse">
<stop stop-color="#7E43DE"/>
<stop offset="1" stop-color="#4473E9"/>
</linearGradient>
<linearGradient id="paint3_linear_3782_9215" x1="3.01563" y1="12.9069" x2="5.12491" y2="12.9069" gradientUnits="userSpaceOnUse">
<stop stop-color="#7E43DE"/>
<stop offset="1" stop-color="#4473E9"/>
</linearGradient>
<linearGradient id="paint4_linear_3782_9215" x1="5.5625" y1="11.9086" x2="6.31641" y2="11.9086" gradientUnits="userSpaceOnUse">
<stop stop-color="#7E43DE"/>
<stop offset="1" stop-color="#4473E9"/>
</linearGradient>
<linearGradient id="paint5_linear_3782_9215" x1="3.82227" y1="1.14271" x2="8.00586" y2="1.14271" gradientUnits="userSpaceOnUse">
<stop stop-color="#7E43DE"/>
<stop offset="1" stop-color="#4473E9"/>
</linearGradient>
<linearGradient id="paint6_linear_3782_9215" x1="0.210938" y1="10.9342" x2="2.62036" y2="10.9342" gradientUnits="userSpaceOnUse">
<stop stop-color="#7E43DE"/>
<stop offset="1" stop-color="#4473E9"/>
</linearGradient>
<linearGradient id="paint7_linear_3782_9215" x1="9.23828" y1="10.9341" x2="11.6511" y2="10.9341" gradientUnits="userSpaceOnUse">
<stop stop-color="#7E43DE"/>
<stop offset="1" stop-color="#4473E9"/>
</linearGradient>
<linearGradient id="paint8_linear_3782_9215" x1="2.50977" y1="7.24045" x2="9.28259" y2="7.24045" gradientUnits="userSpaceOnUse">
<stop stop-color="#7E43DE"/>
<stop offset="1" stop-color="#4473E9"/>
</linearGradient>
<linearGradient id="paint9_linear_3782_9215" x1="4.30469" y1="6.09808" x2="7.54276" y2="6.09808" gradientUnits="userSpaceOnUse">
<stop stop-color="#7E43DE"/>
<stop offset="1" stop-color="#4473E9"/>
</linearGradient>
<linearGradient id="paint10_linear_3782_9215" x1="4.42773" y1="14.2898" x2="7.42066" y2="14.2898" gradientUnits="userSpaceOnUse">
<stop stop-color="#7E43DE"/>
<stop offset="1" stop-color="#4473E9"/>
</linearGradient>
<linearGradient id="paint11_linear_3782_9215" x1="5.09766" y1="16.4081" x2="6.76751" y2="16.4081" gradientUnits="userSpaceOnUse">
<stop stop-color="#7E43DE"/>
<stop offset="1" stop-color="#4473E9"/>
</linearGradient>
</defs>
</svg>
