<svg width="15" height="14" viewBox="0 0 15 14" fill="none" xmlns="http://www.w3.org/2000/svg">
<path d="M7.71116 3.5762C6.86451 4.42469 6.86451 5.80691 7.71116 6.65484C8.12066 7.06557 8.66665 7.29061 9.24769 7.29061C9.82872 7.29061 10.3716 7.06557 10.7842 6.65484C11.6309 5.80635 11.6309 4.42413 10.7842 3.5762C10.3735 3.16547 9.82872 2.94043 9.24769 2.94043C8.66665 2.94043 8.12373 3.16547 7.71116 3.5762ZM10.1116 5.98462C9.88161 6.21457 9.57294 6.34369 9.24584 6.34369C8.91874 6.34369 8.61132 6.21457 8.38013 5.98462C7.90176 5.50442 7.90176 4.72847 8.38013 4.24831C8.61008 4.01527 8.91874 3.88924 9.24584 3.88924C9.57294 3.88924 9.88037 4.01651 10.1116 4.24831C10.5899 4.72851 10.5899 5.50446 10.1116 5.98462Z" fill="url(#paint0_linear_3782_9128)"/>
<path d="M9.72803 0.421776C9.02463 0.587175 8.29727 0.892144 7.61111 1.31455C7.02085 1.6767 6.46195 2.12186 5.94736 2.63649C5.53357 3.05028 5.15851 3.5022 4.83939 3.97748C4.3057 4.7645 3.92509 5.61306 3.7345 6.42951C3.71728 6.50206 3.73757 6.57584 3.79106 6.6281L3.98597 6.8267L7.73044 10.5792C7.78209 10.6308 7.85771 10.653 7.93026 10.6358C8.75047 10.4439 9.60204 10.0578 10.3903 9.52164C10.8533 9.20683 11.2985 8.83854 11.719 8.41982C12.2386 7.89903 12.6856 7.33213 13.0477 6.73387C13.4646 6.04585 13.7683 5.31909 13.9294 4.61822L9.72992 0.424841C9.72992 0.424841 9.72807 0.421766 9.72684 0.419922L9.72803 0.421776ZM11.0106 6.88632C10.5402 7.35853 9.91186 7.61985 9.24471 7.61985C8.57755 7.61985 7.9492 7.35853 7.4788 6.88632C6.50426 5.91055 6.50426 4.32238 7.4788 3.34664C7.94917 2.87443 8.57755 2.61311 9.24471 2.61311C9.91186 2.61311 10.5402 2.87443 11.0106 3.34664C11.9852 4.32241 11.9852 5.91058 11.0106 6.88632Z" fill="url(#paint1_linear_3782_9128)"/>
<path d="M3.40138 8.04554L6.31145 10.9624C6.36678 11.0177 6.52726 10.9937 6.67483 10.8726L7.02283 10.5922C7.09969 10.5295 7.10645 10.4146 7.03697 10.3438L4.01798 7.31698C3.94727 7.24627 3.83229 7.25242 3.76958 7.32928L3.49106 7.67544C3.36993 7.82793 3.34595 7.98718 3.40129 8.04373L3.40138 8.04554Z" fill="url(#paint2_linear_3782_9128)"/>
<path d="M3.12808 8.24507C2.87598 7.99483 2.53166 7.86262 2.16337 7.87369C1.78892 7.88599 1.4317 8.04339 1.15747 8.31884L0.546917 8.93123C0.452229 9.02592 0.502647 9.18763 0.633611 9.21284L2.4598 9.56085L2.61229 9.40652L3.21177 8.51867C3.25604 8.45226 3.24805 8.36434 3.19271 8.30778L3.12815 8.24322L3.12808 8.24507Z" fill="url(#paint3_linear_3782_9128)"/>
<path d="M5.4236 13.8026L6.03908 13.1933C6.32253 12.9099 6.48423 12.5262 6.48423 12.1419C6.48423 11.7908 6.35019 11.465 6.10979 11.2246L6.05014 11.1649C5.99358 11.1083 5.90504 11.1004 5.8374 11.1446L4.91634 11.7681L4.78906 11.8941L5.13831 13.7165C5.16352 13.8469 5.32584 13.8973 5.41992 13.8032L5.4236 13.8026Z" fill="url(#paint4_linear_3782_9128)"/>
<path d="M4.2441 12.123H4.21704C4.083 12.123 3.95081 12.0726 3.85673 11.9766L2.38169 10.5004C2.27594 10.3916 2.22736 10.2471 2.23843 10.1007C2.2495 9.9593 2.14251 9.83326 2.00232 9.8062L1.98203 9.80313C1.9064 9.78898 1.82647 9.80313 1.76315 9.8474C1.68629 9.90273 1.61189 9.96545 1.53934 10.038C1.04191 10.5385 0.865462 11.1964 0.736328 11.8056C0.941078 11.7583 1.15812 11.7146 1.36778 11.6513C1.44034 11.631 1.52211 11.6636 1.55838 11.7319C1.58667 11.7835 1.58544 11.8481 1.55223 11.8985C1.26878 12.3344 1.13844 12.8398 1.03883 13.3071C1.06896 13.301 1.10032 13.2911 1.13167 13.285C1.57683 13.1841 2.03858 13.0833 2.44624 12.8128C2.50281 12.7753 2.57844 12.7765 2.63377 12.8177C2.68911 12.857 2.71432 12.9296 2.69341 12.9954C2.63193 13.2032 2.58458 13.4079 2.54093 13.609C2.57229 13.601 2.60365 13.593 2.63685 13.5869C3.20989 13.4577 3.80138 13.3237 4.27856 12.8454C4.36833 12.7574 4.44396 12.6646 4.50851 12.5668C4.54786 12.5072 4.56016 12.4316 4.54602 12.3608C4.51897 12.2157 4.38677 12.1186 4.24044 12.1247L4.2441 12.123Z" fill="url(#paint5_linear_3782_9128)"/>
<path d="M6.58153 1.26259H6.54218C5.50492 1.26259 4.47264 1.53004 3.5564 2.03361C3.48261 2.07296 3.43527 2.14551 3.42236 2.22729C3.41129 2.30907 3.43834 2.38777 3.49491 2.44434L4.54509 3.49267C4.61764 3.56523 4.73569 3.55539 4.79719 3.47238C5.07448 3.09794 5.38129 2.73701 5.71825 2.40191C6.02383 2.09633 6.34479 1.81656 6.67989 1.56141C6.80593 1.4655 6.74137 1.2626 6.58397 1.26074L6.58153 1.26259Z" fill="url(#paint6_linear_3782_9128)"/>
<path d="M2.61525 10.2696L4.09029 11.7459C4.15485 11.8123 4.26798 11.8154 4.35959 11.752L5.55241 10.9447C5.6391 10.8863 5.6514 10.7621 5.57762 10.6883L3.67163 8.77731C3.59784 8.70353 3.47303 8.7146 3.41523 8.80252L2.60915 9.99534C2.54767 10.0863 2.54951 10.2013 2.6153 10.2677L2.61525 10.2696Z" fill="url(#paint7_linear_3782_9128)"/>
<path d="M13.9325 0.416866C13.6239 0.106971 13.1154 0 12.5362 0C11.8008 0 10.9512 0.171538 10.2477 0.312965L10.1094 0.341248L14.0131 4.24012L14.0402 4.10609C14.2923 2.84686 14.6366 1.12031 13.9344 0.41813L13.9325 0.416866Z" fill="url(#paint8_linear_3782_9128)"/>
<path d="M12.0996 10.9315C12.1986 10.9315 12.2853 10.8811 12.3339 10.7944C12.8473 9.86597 13.1098 8.81757 13.1036 7.76926C13.1036 7.61002 12.8989 7.54545 12.803 7.67335C12.5466 8.01337 12.2613 8.34047 11.9514 8.65096C11.6145 8.9879 11.2591 9.29164 10.8938 9.56218C10.8121 9.62367 10.8028 9.74172 10.8748 9.81428L11.92 10.8577C11.9686 10.905 12.0332 10.9315 12.1008 10.9315L12.0996 10.9315Z" fill="url(#paint9_linear_3782_9128)"/>
<path d="M8.61293 4.47801C8.26184 4.82909 8.26184 5.40029 8.61293 5.75137C8.78139 5.92106 9.00827 6.01576 9.24745 6.01576C9.48662 6.01576 9.71166 5.92291 9.88197 5.75137C10.2331 5.40028 10.2331 4.82908 9.88197 4.47801C9.71228 4.30954 9.4854 4.21484 9.24745 4.21484C9.0095 4.21484 8.78139 4.30769 8.61293 4.47801Z" fill="url(#paint10_linear_3782_9128)"/>
<defs>
<linearGradient id="paint0_linear_3782_9128" x1="7.07617" y1="5.11552" x2="11.352" y2="5.11552" gradientUnits="userSpaceOnUse">
<stop stop-color="#7E43DE"/>
<stop offset="1" stop-color="#4473E9"/>
</linearGradient>
<linearGradient id="paint1_linear_3782_9128" x1="3.72852" y1="5.53072" x2="13.7717" y2="5.53072" gradientUnits="userSpaceOnUse">
<stop stop-color="#7E43DE"/>
<stop offset="1" stop-color="#4473E9"/>
</linearGradient>
<linearGradient id="paint2_linear_3782_9128" x1="3.37305" y1="9.1291" x2="7.02765" y2="9.1291" gradientUnits="userSpaceOnUse">
<stop stop-color="#7E43DE"/>
<stop offset="1" stop-color="#4473E9"/>
</linearGradient>
<linearGradient id="paint3_linear_3782_9128" x1="0.498047" y1="8.71695" x2="3.19788" y2="8.71695" gradientUnits="userSpaceOnUse">
<stop stop-color="#7E43DE"/>
<stop offset="1" stop-color="#4473E9"/>
</linearGradient>
<linearGradient id="paint4_linear_3782_9128" x1="4.78906" y1="12.4839" x2="6.45802" y2="12.4839" gradientUnits="userSpaceOnUse">
<stop stop-color="#7E43DE"/>
<stop offset="1" stop-color="#4473E9"/>
</linearGradient>
<linearGradient id="paint5_linear_3782_9128" x1="0.736328" y1="11.7034" x2="4.49268" y2="11.7034" gradientUnits="userSpaceOnUse">
<stop stop-color="#7E43DE"/>
<stop offset="1" stop-color="#4473E9"/>
</linearGradient>
<linearGradient id="paint6_linear_3782_9128" x1="3.41992" y1="2.40108" x2="6.69504" y2="2.40108" gradientUnits="userSpaceOnUse">
<stop stop-color="#7E43DE"/>
<stop offset="1" stop-color="#4473E9"/>
</linearGradient>
<linearGradient id="paint7_linear_3782_9128" x1="2.56445" y1="10.2631" x2="5.57867" y2="10.2631" gradientUnits="userSpaceOnUse">
<stop stop-color="#7E43DE"/>
<stop offset="1" stop-color="#4473E9"/>
</linearGradient>
<linearGradient id="paint8_linear_3782_9128" x1="10.1094" y1="2.12006" x2="14.2849" y2="2.12006" gradientUnits="userSpaceOnUse">
<stop stop-color="#7E43DE"/>
<stop offset="1" stop-color="#4473E9"/>
</linearGradient>
<linearGradient id="paint9_linear_3782_9128" x1="10.8262" y1="9.26849" x2="13.0685" y2="9.26849" gradientUnits="userSpaceOnUse">
<stop stop-color="#7E43DE"/>
<stop offset="1" stop-color="#4473E9"/>
</linearGradient>
<linearGradient id="paint10_linear_3782_9128" x1="8.34961" y1="5.1153" x2="10.1175" y2="5.1153" gradientUnits="userSpaceOnUse">
<stop stop-color="#7E43DE"/>
<stop offset="1" stop-color="#4473E9"/>
</linearGradient>
</defs>
</svg>
