<svg width="18" height="17" viewBox="0 0 18 17" fill="none" xmlns="http://www.w3.org/2000/svg">
<path d="M0.564644 3.42706C0.475659 3.46446 0.394929 3.51905 0.327078 3.5877C0.259228 3.65635 0.205592 3.73772 0.169243 3.82714C0.132894 3.91656 0.114547 4.01227 0.115254 4.10879C0.115961 4.20531 0.135707 4.30074 0.173361 4.38962L3.97076 13.2561C4.02745 13.3881 4.12162 13.5005 4.2416 13.5794C4.36158 13.6584 4.5021 13.7004 4.64572 13.7002C4.74452 13.6998 4.84226 13.6798 4.93332 13.6415L5.76088 13.2874C5.69679 13.0287 5.73535 12.7553 5.86848 12.5244L6.5454 11.3505L6.34976 11.329C6.07943 11.2981 5.83237 11.1613 5.66262 10.9486C5.49287 10.736 5.41424 10.4648 5.44394 10.1943L5.5085 9.6289L3.37601 8.44722C3.34913 8.43245 3.32763 8.40952 3.31462 8.38174C3.30161 8.35397 3.29776 8.32277 3.30362 8.29267L4.06076 4.27223C4.06478 4.24925 4.07438 4.22761 4.0887 4.20919C4.10302 4.19077 4.12164 4.17615 4.14293 4.16659C4.16362 4.1564 4.18638 4.15111 4.20944 4.15111C4.23251 4.15111 4.25527 4.1564 4.27596 4.16659L6.01521 5.14479L6.48867 0.922852C6.42147 0.929818 6.3556 0.946286 6.29303 0.971762L0.564644 3.42706Z" fill="url(#paint0_linear_3778_8908)"/>
<path d="M6.81463 0.647057L5.7386 10.2335C5.72602 10.3298 5.73269 10.4277 5.75822 10.5214C5.78375 10.6151 5.82764 10.7028 5.88733 10.7794C5.94703 10.856 6.02135 10.92 6.10597 10.9677C6.19059 11.0154 6.28384 11.0458 6.38031 11.0571L6.70311 11.0924L9.09777 6.98388C8.87045 6.97938 8.64735 6.92176 8.44628 6.81563C8.21184 6.68667 8.01859 6.49411 7.88879 6.26013C7.75899 6.02615 7.69792 5.76026 7.71262 5.4931C7.71262 4.94334 8.02369 3.53668 10.6472 2.30218C10.6719 2.29095 10.6991 2.28665 10.726 2.28975C10.7529 2.29286 10.7784 2.30324 10.7998 2.31979C11.4393 2.78847 11.9954 3.36118 12.4452 4.01405L14.069 4.95704L14.4603 1.5157C14.4737 1.41876 14.4675 1.32011 14.4421 1.2256C14.4167 1.13109 14.3726 1.04264 14.3124 0.965473C14.2522 0.88831 14.1771 0.824008 14.0916 0.776372C14.0062 0.728736 13.912 0.698734 13.8147 0.688141L7.62459 0.00143973C7.59723 -0.00047991 7.56977 -0.00047991 7.54242 0.00143973C7.3633 0.00199984 7.19055 0.0678919 7.05655 0.186755C6.92256 0.305619 6.83654 0.469287 6.81463 0.647057Z" fill="url(#paint1_linear_3778_8908)"/>
<path d="M17.363 7.19879L11.9789 4.06853C11.8664 4.0038 11.739 3.96942 11.6092 3.96875C11.4807 3.96891 11.3546 4.00279 11.2434 4.06699C11.1321 4.13119 11.0397 4.22347 10.9753 4.3346L6.1234 12.6728C6.02471 12.8397 5.99627 13.0389 6.04432 13.2267C6.09237 13.4145 6.21299 13.5756 6.37969 13.6745L11.7637 16.8048C11.8477 16.8544 11.9406 16.8867 12.0372 16.9C12.1337 16.9132 12.2319 16.9071 12.3261 16.882C12.4203 16.8568 12.5085 16.8132 12.5856 16.7536C12.6627 16.694 12.7272 16.6196 12.7752 16.5348L17.6271 8.1946C17.7228 8.02721 17.7487 7.82889 17.6993 7.64254C17.6498 7.45619 17.529 7.29678 17.363 7.19879ZM14.5966 10.8103C14.3756 11.2897 13.5636 12.4126 10.7758 12.4733C10.7494 12.4734 10.7234 12.4663 10.7007 12.4529C10.678 12.4394 10.6593 12.4201 10.6466 12.397C9.31431 9.9456 9.90123 8.68371 10.2045 8.25525C10.3464 8.03949 10.5464 7.86825 10.7814 7.76128C11.0165 7.65432 11.277 7.61599 11.5329 7.65072C11.8525 7.70585 12.144 7.86754 12.36 8.10946C12.5759 8.35137 12.7037 8.65928 12.7224 8.98304C13.0128 8.83883 13.3436 8.79745 13.6606 8.86569C13.9776 8.93392 14.2621 9.10773 14.4675 9.35867C14.6235 9.56395 14.7184 9.80909 14.7412 10.0659C14.764 10.3227 14.7139 10.5807 14.5966 10.8103Z" fill="url(#paint2_linear_3778_8908)"/>
<defs>
<linearGradient id="paint0_linear_3778_8908" x1="0.115234" y1="7.31152" x2="6.44597" y2="7.31152" gradientUnits="userSpaceOnUse">
<stop stop-color="#7E43DE"/>
<stop offset="1" stop-color="#4473E9"/>
</linearGradient>
<linearGradient id="paint1_linear_3778_8908" x1="5.73242" y1="5.54618" x2="14.3321" y2="5.54618" gradientUnits="userSpaceOnUse">
<stop stop-color="#7E43DE"/>
<stop offset="1" stop-color="#4473E9"/>
</linearGradient>
<linearGradient id="paint2_linear_3778_8908" x1="6.02148" y1="10.4378" x2="17.5428" y2="10.4378" gradientUnits="userSpaceOnUse">
<stop stop-color="#7E43DE"/>
<stop offset="1" stop-color="#4473E9"/>
</linearGradient>
</defs>
</svg>
