<svg width="16" height="16" viewBox="0 0 16 16" fill="none" xmlns="http://www.w3.org/2000/svg">
<path d="M5.67168 10.219V9.41147C5.13248 9.45578 4.9109 9.99252 5.67168 10.219Z" fill="url(#paint0_linear_3784_9572)"/>
<path d="M5.99492 10.8713V11.7109C6.62522 11.6518 6.76309 11.0855 5.99492 10.8713Z" fill="url(#paint1_linear_3784_9572)"/>
<path d="M8.45238 14.1454V6.54248C8.45238 6.0599 8.73306 5.64135 9.13931 5.44192C8.87586 5.20309 8.5878 4.96181 8.44007 4.8584C8.28742 5.18832 7.97966 5.40991 7.61527 5.40991H3.94921C3.58974 5.40991 3.28198 5.19078 3.13179 4.86579C1.21381 6.07468 0 8.48507 0 11.1663C0 15.2091 2.78463 15.7655 5.79086 15.7655C6.8471 15.7655 8.14955 15.7064 9.21563 15.278C8.76753 15.0958 8.45238 14.6576 8.45238 14.1454ZM5.99521 12.2102V12.5475H5.67268V12.2053C5.21226 12.1634 4.79863 11.9936 4.43424 11.6981L4.80109 11.2919C5.08423 11.5184 5.37476 11.6538 5.67268 11.6981V10.7921C5.067 10.6591 4.57458 10.4744 4.57458 9.85154C4.57458 9.26309 5.08177 8.94056 5.67268 8.91101V8.67958H5.99521V8.91594C6.36452 8.94056 6.71168 9.05874 7.0416 9.26556L6.71414 9.69642C6.49255 9.5487 6.25373 9.46006 5.99521 9.42559V10.3021H6.00998C7.70637 10.6714 7.33952 12.1487 5.99521 12.2102Z" fill="url(#paint2_linear_3784_9572)"/>
<path d="M3.95012 3.84561C3.71081 3.84561 3.51433 4.08468 3.51433 4.37989C3.51433 4.65244 3.68742 4.91711 3.95012 4.91711H7.6157C7.88062 4.91711 8.05149 4.64998 8.05149 4.37989C8.05149 4.08493 7.85747 3.84561 7.6157 3.84561H3.95012Z" fill="url(#paint3_linear_3784_9572)"/>
<path d="M3.7914 3.37155C3.8431 3.35924 3.8948 3.35432 3.94897 3.35432H7.62488L8.19117 1.621C8.56294 0.485972 7.49439 -0.40777 6.68929 0.205293C6.54895 0.313625 6.37168 0.313625 6.23134 0.205293C5.88418 -0.0581517 5.43854 -0.0581517 5.09385 0.205293C4.95105 0.313625 4.77624 0.313625 4.63343 0.205293C3.76185 -0.459474 2.77455 0.611539 3.16849 1.68501L3.7914 3.37155Z" fill="url(#paint4_linear_3784_9572)"/>
<path d="M14.6221 5.80933H9.67819C9.27441 5.80933 8.94449 6.13925 8.94449 6.54303V14.146C8.94449 14.5498 9.27441 14.8772 9.67819 14.8772H14.6221C15.0259 14.8772 15.3533 14.5498 15.3533 14.146V6.54303C15.3533 6.13925 15.0259 5.80933 14.6221 5.80933ZM9.87073 6.81706C9.87073 6.68115 9.98078 6.57085 10.1169 6.57085H10.7142C10.8504 6.57085 10.9605 6.68115 10.9605 6.81706C10.9605 6.95297 10.8504 7.06327 10.7142 7.06327H10.1169C9.98103 7.06327 9.87073 6.95297 9.87073 6.81706ZM12.1494 12.5318C12.0679 12.5318 11.9916 12.4915 11.9458 12.424L10.6256 10.4821C10.569 10.3987 10.569 10.2886 10.6256 10.2052L11.9458 8.26355C12.0376 8.12887 12.2612 8.12887 12.353 8.26355L13.6732 10.2052C13.7298 10.2886 13.7298 10.3987 13.6732 10.4821L12.353 12.424C12.3072 12.4915 12.2309 12.5318 12.1494 12.5318ZM14.241 13.9461H13.6436C13.5075 13.9461 13.3974 13.8358 13.3974 13.6999C13.3974 13.564 13.5075 13.4536 13.6436 13.4536H14.241C14.3771 13.4536 14.4872 13.564 14.4872 13.6999C14.4872 13.8358 14.3771 13.9461 14.241 13.9461Z" fill="url(#paint5_linear_3784_9572)"/>
<defs>
<linearGradient id="paint0_linear_3784_9572" x1="0" y1="7.88275" x2="15.1159" y2="7.88275" gradientUnits="userSpaceOnUse">
<stop stop-color="#7E43DE"/>
<stop offset="1" stop-color="#4473E9"/>
</linearGradient>
<linearGradient id="paint1_linear_3784_9572" x1="0" y1="7.88275" x2="15.1159" y2="7.88275" gradientUnits="userSpaceOnUse">
<stop stop-color="#7E43DE"/>
<stop offset="1" stop-color="#4473E9"/>
</linearGradient>
<linearGradient id="paint2_linear_3784_9572" x1="0" y1="7.88275" x2="15.1159" y2="7.88275" gradientUnits="userSpaceOnUse">
<stop stop-color="#7E43DE"/>
<stop offset="1" stop-color="#4473E9"/>
</linearGradient>
<linearGradient id="paint3_linear_3784_9572" x1="0" y1="7.88275" x2="15.1159" y2="7.88275" gradientUnits="userSpaceOnUse">
<stop stop-color="#7E43DE"/>
<stop offset="1" stop-color="#4473E9"/>
</linearGradient>
<linearGradient id="paint4_linear_3784_9572" x1="0" y1="7.88275" x2="15.1159" y2="7.88275" gradientUnits="userSpaceOnUse">
<stop stop-color="#7E43DE"/>
<stop offset="1" stop-color="#4473E9"/>
</linearGradient>
<linearGradient id="paint5_linear_3784_9572" x1="0" y1="7.88275" x2="15.1159" y2="7.88275" gradientUnits="userSpaceOnUse">
<stop stop-color="#7E43DE"/>
<stop offset="1" stop-color="#4473E9"/>
</linearGradient>
</defs>
</svg>
