<svg width="15" height="16" viewBox="0 0 15 16" fill="none" xmlns="http://www.w3.org/2000/svg">
<path d="M13.0762 0.453125H5.11863C4.57335 0.453125 4.12995 0.896521 4.12995 1.4418V1.47011L0.812025 2.14086C0.278063 2.24935 -0.0691066 2.77199 0.0393839 3.30596L2.35353 14.755C2.44882 15.2229 2.86203 15.5475 3.3224 15.5475C3.3875 15.5475 3.45259 15.5409 3.51863 15.5277L10.5252 14.1107H13.0762C13.6215 14.1107 14.0649 13.6673 14.0649 13.122V1.4418C14.0649 0.896521 13.6215 0.453125 13.0762 0.453125ZM3.33089 14.5965C3.31014 14.6003 3.28938 14.5871 3.28561 14.5663L0.970516 3.11822C0.966742 3.09746 0.97995 3.07671 1.0007 3.07294L4.12995 2.43992V13.122C4.12995 13.6673 4.57335 14.1107 5.11863 14.1107H5.73278L3.33089 14.5965ZM11.3843 8.67577C10.8967 9.17794 10.1285 9.26822 9.58476 8.88473L9.88023 9.84454C9.91061 9.94322 9.83684 10.043 9.73363 10.043H8.46165C8.35844 10.043 8.28467 9.94313 8.31504 9.84454L8.61193 8.88001C8.06646 9.26643 7.29448 9.17416 6.80693 8.66822C6.27919 8.12048 6.21542 7.22511 6.71721 6.67379C7.27637 6.05954 9.10438 4.52048 9.10438 4.52048C9.10438 4.52048 10.9247 6.06577 11.4813 6.68171C11.9812 7.23482 11.914 8.13011 11.3843 8.67577Z" fill="url(#paint0_linear_3776_8867)"/>
<defs>
<linearGradient id="paint0_linear_3776_8867" x1="0.0195313" y1="8.0003" x2="13.8477" y2="8.0003" gradientUnits="userSpaceOnUse">
<stop stop-color="#7E43DE"/>
<stop offset="1" stop-color="#4473E9"/>
</linearGradient>
</defs>
</svg>
