<svg width="12" height="18" viewBox="0 0 12 18" fill="none" xmlns="http://www.w3.org/2000/svg">
<path d="M4.08203 10.4747C4.08203 10.6317 4.12556 10.7827 4.20405 10.9174H5.73051C5.809 10.7827 5.85252 10.6317 5.85252 10.4747C5.85252 10.3518 5.82582 10.2325 5.77742 10.1217C5.58518 10.253 5.35664 10.3272 5.11482 10.3272C4.7917 10.3272 4.49869 10.1965 4.28534 9.98535C4.25701 10.0039 4.22795 10.0212 4.19829 10.0373C4.1226 10.169 4.08203 10.3184 4.08203 10.4747Z" fill="url(#paint0_linear_3784_9708)"/>
<path d="M10.4009 7.12661C10.4151 7.06317 10.4248 6.99899 10.4248 6.93407C10.4248 6.44586 10.0278 6.04883 9.53958 6.04883C9.06435 6.04883 8.67646 6.4255 8.65625 6.89586C8.82076 7.08368 8.92625 7.32343 8.94514 7.58739C9.13 7.75647 9.37182 7.84071 9.62869 7.81327C9.76591 7.48086 10.0507 7.22517 10.4009 7.12661Z" fill="url(#paint1_linear_3784_9708)"/>
<path d="M5.11376 8.2627C4.62555 8.2627 4.22852 8.65973 4.22852 9.14794C4.22852 9.63615 4.62555 10.0332 5.11376 10.0332C5.36089 10.0332 5.58988 9.9305 5.75542 9.75433C5.37491 9.55811 5.11376 9.16196 5.11376 8.70532C5.11376 8.55202 5.14489 8.40522 5.19904 8.26904C5.17056 8.26638 5.14238 8.2627 5.11376 8.2627Z" fill="url(#paint2_linear_3784_9708)"/>
<path d="M6.83309 9.75391C6.67123 9.83741 6.48828 9.88537 6.29397 9.88537C6.21076 9.88537 6.12946 9.87651 6.05112 9.85999C6.03592 9.8802 6.02028 9.89982 6.00391 9.91886C6.09582 10.0897 6.14643 10.2793 6.14643 10.4755C6.14643 10.6293 6.11368 10.7781 6.05658 10.9182H7.2195C7.19368 10.8217 7.17922 10.7233 7.17922 10.6231C7.17922 10.4962 7.19987 10.374 7.2372 10.2594C7.05779 10.1323 6.91851 9.95648 6.83309 9.75391Z" fill="url(#paint3_linear_3784_9708)"/>
<path d="M10.411 9.39968C10.1109 9.31883 9.86028 9.12363 9.70595 8.86426C9.45542 8.901 9.23411 9.04322 9.09483 9.25804C9.09528 9.27044 9.09719 9.28254 9.09719 9.29508C9.09719 9.4196 9.07757 9.54162 9.03906 9.6595C9.27498 9.82637 9.44716 10.0772 9.51149 10.3686C9.85157 10.0815 10.1527 9.75555 10.411 9.39968Z" fill="url(#paint4_linear_3784_9708)"/>
<path d="M8.47983 8.6123C8.28198 8.76191 8.03647 8.85191 7.76987 8.85191C7.66836 8.85191 7.56803 8.83671 7.46947 8.80971C7.44233 9.11527 7.29788 9.3869 7.08203 9.58106C7.13677 9.74129 7.23651 9.88145 7.36752 9.98621C7.57762 9.6594 7.94352 9.44208 8.36003 9.44208C8.50521 9.44208 8.6439 9.46967 8.77256 9.51791C8.79174 9.44503 8.80265 9.37037 8.80265 9.29453C8.80265 9.02778 8.68344 8.77976 8.47983 8.6123Z" fill="url(#paint5_linear_3784_9708)"/>
<path d="M8.06474 0.442623C8.06474 0.19859 7.86615 0 7.62212 0H4.37622C4.13218 0 3.93359 0.19859 3.93359 0.442623V0.885246H8.06474V0.442623Z" fill="url(#paint6_linear_3784_9708)"/>
<path d="M1.86888 7.0823C1.92156 7.0823 1.9732 7.08702 2.0241 7.09366C2.23198 6.7257 2.62105 6.49214 3.04921 6.49214C3.35772 6.49214 3.65088 6.61578 3.86939 6.8278C3.96898 6.6925 4.09602 6.57875 4.24311 6.49598C4.13865 6.31657 4.082 6.11134 4.082 5.90198C4.082 5.25117 4.61152 4.72165 5.26233 4.72165C5.86326 4.72165 6.35974 5.17342 6.43247 5.75488C6.43587 5.75488 6.43926 5.75443 6.44266 5.75443C6.94606 5.75443 7.37585 6.07194 7.54508 6.51663C7.61959 6.50202 7.69484 6.49214 7.77052 6.49214C7.99847 6.49214 8.21093 6.55824 8.39152 6.67066C8.51192 6.14675 8.9811 5.75443 9.54102 5.75443C10.1918 5.75443 10.7213 6.28396 10.7213 6.93476C10.7213 6.98434 10.716 7.03376 10.7098 7.08289C10.7137 7.08289 10.7175 7.0823 10.7213 7.0823C10.9478 7.0823 11.1649 7.14678 11.3521 7.2657C11.4223 6.91721 11.459 6.55957 11.459 6.19706C11.459 3.99678 10.1728 2.03139 8.18069 1.18066H3.81938C1.82728 2.03139 0.541016 3.99678 0.541016 6.19706C0.541016 6.74621 0.627327 7.2837 0.785344 7.79566C0.966671 7.3765 1.38392 7.0823 1.86888 7.0823Z" fill="url(#paint7_linear_3784_9708)"/>
<path d="M9.53977 8.11475C9.31639 8.11475 9.10349 8.0519 8.91862 7.93652C8.87834 8.11121 8.7997 8.27115 8.69141 8.40688C8.8416 8.53746 8.95462 8.70182 9.02264 8.88521C9.17888 8.7359 9.3729 8.63292 9.58565 8.58718C9.55614 8.48375 9.53977 8.37502 9.53977 8.26229C9.53977 8.21198 9.5439 8.16285 9.55009 8.11431C9.5467 8.11431 9.54316 8.11475 9.53977 8.11475Z" fill="url(#paint8_linear_3784_9708)"/>
<path d="M7.13867 7.88496C7.3017 8.05301 7.41118 8.26518 7.45323 8.4949C7.55636 8.53577 7.66244 8.5576 7.76941 8.5576C8.25762 8.5576 8.65466 8.16057 8.65466 7.67236C8.65466 7.18414 8.25762 6.78711 7.76941 6.78711C7.71733 6.78711 7.66554 6.79286 7.6139 6.80231C7.61877 6.84583 7.62187 6.8898 7.62187 6.93465C7.62187 7.3246 7.43095 7.66999 7.13867 7.88496Z" fill="url(#paint9_linear_3784_9708)"/>
<path d="M7.47461 10.6226C7.47461 10.7232 7.49276 10.822 7.52787 10.9176H8.73402C8.91122 10.8146 9.08059 10.7019 9.24304 10.5814C9.2212 10.1124 8.83405 9.7373 8.35986 9.7373C7.87164 9.7373 7.47461 10.1343 7.47461 10.6226Z" fill="url(#paint10_linear_3784_9708)"/>
<path d="M3.93359 7.52489C3.93359 7.82676 4.08556 8.10089 4.33476 8.26363C4.54294 8.07994 4.81515 7.96752 5.11392 7.96752C5.19492 7.96752 5.27489 7.97873 5.35382 7.99525C5.42213 7.90525 5.50328 7.82499 5.59653 7.75683C5.38953 7.54407 5.26146 7.2543 5.26146 6.93473C5.26146 6.87866 5.26677 6.82407 5.2743 6.77007C5.1362 6.68612 4.98128 6.63965 4.81884 6.63965C4.33063 6.63965 3.93359 7.03668 3.93359 7.52489Z" fill="url(#paint11_linear_3784_9708)"/>
<path d="M0.982422 8.2622C0.982422 8.28964 0.984487 8.31915 0.988176 8.35176C1.07109 8.54371 1.16419 8.73108 1.26836 8.91212C1.43242 9.06379 1.644 9.14744 1.86767 9.14744C2.35588 9.14744 2.75291 8.75041 2.75291 8.2622C2.75291 7.77399 2.35588 7.37695 1.86767 7.37695C1.37945 7.37695 0.982422 7.77399 0.982422 8.2622Z" fill="url(#paint12_linear_3784_9708)"/>
<path d="M3.04828 6.78711C2.75364 6.78711 2.48349 6.93509 2.32031 7.17263C2.66792 7.31752 2.93113 7.62396 3.01715 7.99768C3.21308 7.87508 3.44089 7.8134 3.67784 7.82285C3.65305 7.72695 3.63844 7.62721 3.63844 7.52481C3.63844 7.37432 3.6678 7.23077 3.71944 7.09827C3.55184 6.90263 3.30692 6.78711 3.04828 6.78711Z" fill="url(#paint13_linear_3784_9708)"/>
<path d="M10.7212 7.37695C10.233 7.37695 9.83594 7.77399 9.83594 8.2622C9.83594 8.70541 10.1617 9.07412 10.5919 9.13667C10.8997 8.65643 11.133 8.1303 11.2789 7.5754C11.1215 7.44704 10.9264 7.37695 10.7212 7.37695Z" fill="url(#paint14_linear_3784_9708)"/>
<path d="M2.48903 9.26367C2.30844 9.3761 2.09598 9.4422 1.86803 9.4422C1.77449 9.4422 1.68286 9.42995 1.59375 9.40885C1.78009 9.66439 1.98827 9.90444 2.21755 10.1256C2.28616 9.90474 2.41895 9.70747 2.59983 9.55993C2.55011 9.46787 2.51308 9.36828 2.48903 9.26367Z" fill="url(#paint15_linear_3784_9708)"/>
<path d="M5.2622 5.0166C4.77399 5.0166 4.37695 5.41363 4.37695 5.90185C4.37695 6.07373 4.43007 6.2406 4.52331 6.38357C4.61818 6.35893 4.71704 6.34447 4.81958 6.34447C5.00828 6.34447 5.1902 6.38962 5.35559 6.47475C5.49679 6.14234 5.78671 5.88872 6.1411 5.79488C6.08961 5.35904 5.71544 5.0166 5.2622 5.0166Z" fill="url(#paint16_linear_3784_9708)"/>
<path d="M6.44189 6.04883C6.02287 6.04883 5.67172 6.3417 5.58039 6.73342C5.58025 6.73386 5.58025 6.73416 5.5801 6.7346C5.56535 6.79878 5.55664 6.86532 5.55664 6.93407C5.55664 7.42229 5.95367 7.81932 6.44189 7.81932C6.9301 7.81932 7.32713 7.42229 7.32713 6.93407C7.32713 6.44586 6.9301 6.04883 6.44189 6.04883Z" fill="url(#paint17_linear_3784_9708)"/>
<path d="M3.04474 8.34699C3.02586 8.6108 2.92022 8.8504 2.75586 9.03822C2.77533 9.5077 3.16352 9.88511 3.63919 9.88511C3.76283 9.88511 3.88322 9.85604 3.9952 9.80647C4.0197 9.77121 4.04596 9.73712 4.07443 9.70437C3.98517 9.53839 3.93427 9.3488 3.93427 9.1474C3.93427 8.90248 4.00937 8.67483 4.13758 8.48612C4.00317 8.39126 3.89193 8.2713 3.80901 8.13409C3.52366 8.0767 3.24894 8.16006 3.04474 8.34699Z" fill="url(#paint18_linear_3784_9708)"/>
<path d="M7.17869 8.70581C7.17869 8.44717 7.06317 8.20225 6.86753 8.03464C6.73504 8.08628 6.59148 8.11564 6.44099 8.11564C6.2213 8.11564 6.01607 8.05412 5.83976 7.94922C5.57242 8.10886 5.4082 8.3911 5.4082 8.70581C5.4082 9.19402 5.80524 9.59105 6.29345 9.59105C6.78166 9.59105 7.17869 9.19402 7.17869 8.70581Z" fill="url(#paint19_linear_3784_9708)"/>
<path d="M3.87555 10.9181C3.81845 10.7781 3.7857 10.6292 3.7857 10.4755C3.7857 10.3685 3.80119 10.2644 3.82849 10.1643C3.76578 10.1745 3.70219 10.1804 3.63816 10.1804C3.29645 10.1804 2.98913 10.0336 2.77342 9.80078C2.60744 9.94139 2.49885 10.1385 2.46875 10.3545C2.71455 10.5637 2.97983 10.753 3.264 10.9183L3.87555 10.9181Z" fill="url(#paint20_linear_3784_9708)"/>
<path d="M11.1483 17.4096L10.7207 12.8496C10.6276 11.8706 9.97517 11.2129 9.0973 11.2129H2.90058C2.02271 11.2129 1.37028 11.8706 1.27689 12.8499L0.849609 17.4096H11.1483ZM5.99894 11.6555C6.65077 11.6555 7.17927 12.184 7.17927 12.8358C7.17927 13.4875 6.65122 14.0159 5.99953 14.0162C6.16684 14.016 6.25654 13.9231 6.29417 13.7801C6.39228 13.465 6.44112 13.1497 6.44156 12.8358H6.44097C6.44053 12.5222 6.39169 12.2067 6.29358 11.8916C6.25595 11.7486 6.16595 11.6555 5.9985 11.6555C5.83104 11.6555 5.75845 11.7411 5.70341 11.8916C5.60589 12.2109 5.55779 12.526 5.55646 12.8358H5.55705C5.55838 13.1455 5.60648 13.4608 5.704 13.7801C5.75889 13.9304 5.83163 14.0162 5.99894 14.0162C5.3471 14.0162 4.81846 13.4877 4.81846 12.8358C4.81846 12.184 5.3471 11.6555 5.99894 11.6555ZM4.37599 16.2293C4.37599 15.333 5.10263 14.6063 5.99894 14.6063C6.89525 14.6063 7.62189 15.333 7.62189 16.2293V16.6719C7.62189 16.8349 7.48984 16.967 7.32681 16.967H4.67107C4.50804 16.967 4.37599 16.8349 4.37599 16.6719V16.2293Z" fill="url(#paint21_linear_3784_9708)"/>
<path d="M11.4582 17.7051H0.540119C0.458676 17.7051 0.392578 17.7713 0.392578 17.8526C0.392578 17.9339 0.458676 18.0002 0.540119 18.0002H11.4582C11.5396 18.0002 11.6057 17.9339 11.6057 17.8526C11.6057 17.7713 11.5396 17.7051 11.4582 17.7051Z" fill="url(#paint22_linear_3784_9708)"/>
<defs>
<linearGradient id="paint0_linear_3784_9708" x1="4.08203" y1="10.4514" x2="5.82514" y2="10.4514" gradientUnits="userSpaceOnUse">
<stop stop-color="#7E43DE"/>
<stop offset="1" stop-color="#4473E9"/>
</linearGradient>
<linearGradient id="paint1_linear_3784_9708" x1="8.65625" y1="6.9336" x2="10.3975" y2="6.9336" gradientUnits="userSpaceOnUse">
<stop stop-color="#7E43DE"/>
<stop offset="1" stop-color="#4473E9"/>
</linearGradient>
<linearGradient id="paint2_linear_3784_9708" x1="4.22852" y1="9.14794" x2="5.73181" y2="9.14794" gradientUnits="userSpaceOnUse">
<stop stop-color="#7E43DE"/>
<stop offset="1" stop-color="#4473E9"/>
</linearGradient>
<linearGradient id="paint3_linear_3784_9708" x1="6.00391" y1="10.336" x2="7.21813" y2="10.336" gradientUnits="userSpaceOnUse">
<stop stop-color="#7E43DE"/>
<stop offset="1" stop-color="#4473E9"/>
</linearGradient>
<linearGradient id="paint4_linear_3784_9708" x1="9.03906" y1="9.61642" x2="10.3898" y2="9.61642" gradientUnits="userSpaceOnUse">
<stop stop-color="#7E43DE"/>
<stop offset="1" stop-color="#4473E9"/>
</linearGradient>
<linearGradient id="paint5_linear_3784_9708" x1="7.08203" y1="9.29926" x2="8.77605" y2="9.29926" gradientUnits="userSpaceOnUse">
<stop stop-color="#7E43DE"/>
<stop offset="1" stop-color="#4473E9"/>
</linearGradient>
<linearGradient id="paint6_linear_3784_9708" x1="3.93359" y1="0.442623" x2="8.00086" y2="0.442623" gradientUnits="userSpaceOnUse">
<stop stop-color="#7E43DE"/>
<stop offset="1" stop-color="#4473E9"/>
</linearGradient>
<linearGradient id="paint7_linear_3784_9708" x1="0.541016" y1="4.48816" x2="11.2902" y2="4.48816" gradientUnits="userSpaceOnUse">
<stop stop-color="#7E43DE"/>
<stop offset="1" stop-color="#4473E9"/>
</linearGradient>
<linearGradient id="paint8_linear_3784_9708" x1="8.69141" y1="8.41087" x2="9.57182" y2="8.41087" gradientUnits="userSpaceOnUse">
<stop stop-color="#7E43DE"/>
<stop offset="1" stop-color="#4473E9"/>
</linearGradient>
<linearGradient id="paint9_linear_3784_9708" x1="7.13867" y1="7.67236" x2="8.63121" y2="7.67236" gradientUnits="userSpaceOnUse">
<stop stop-color="#7E43DE"/>
<stop offset="1" stop-color="#4473E9"/>
</linearGradient>
<linearGradient id="paint10_linear_3784_9708" x1="7.47461" y1="10.3275" x2="9.21569" y2="10.3275" gradientUnits="userSpaceOnUse">
<stop stop-color="#7E43DE"/>
<stop offset="1" stop-color="#4473E9"/>
</linearGradient>
<linearGradient id="paint11_linear_3784_9708" x1="3.93359" y1="7.45164" x2="5.57081" y2="7.45164" gradientUnits="userSpaceOnUse">
<stop stop-color="#7E43DE"/>
<stop offset="1" stop-color="#4473E9"/>
</linearGradient>
<linearGradient id="paint12_linear_3784_9708" x1="0.982422" y1="8.2622" x2="2.72553" y2="8.2622" gradientUnits="userSpaceOnUse">
<stop stop-color="#7E43DE"/>
<stop offset="1" stop-color="#4473E9"/>
</linearGradient>
<linearGradient id="paint13_linear_3784_9708" x1="2.32031" y1="7.3924" x2="3.69781" y2="7.3924" gradientUnits="userSpaceOnUse">
<stop stop-color="#7E43DE"/>
<stop offset="1" stop-color="#4473E9"/>
</linearGradient>
<linearGradient id="paint14_linear_3784_9708" x1="9.83594" y1="8.25681" x2="11.2566" y2="8.25681" gradientUnits="userSpaceOnUse">
<stop stop-color="#7E43DE"/>
<stop offset="1" stop-color="#4473E9"/>
</linearGradient>
<linearGradient id="paint15_linear_3784_9708" x1="1.59375" y1="9.69464" x2="2.58427" y2="9.69464" gradientUnits="userSpaceOnUse">
<stop stop-color="#7E43DE"/>
<stop offset="1" stop-color="#4473E9"/>
</linearGradient>
<linearGradient id="paint16_linear_3784_9708" x1="4.37695" y1="5.74568" x2="6.11382" y2="5.74568" gradientUnits="userSpaceOnUse">
<stop stop-color="#7E43DE"/>
<stop offset="1" stop-color="#4473E9"/>
</linearGradient>
<linearGradient id="paint17_linear_3784_9708" x1="5.55664" y1="6.93407" x2="7.29975" y2="6.93407" gradientUnits="userSpaceOnUse">
<stop stop-color="#7E43DE"/>
<stop offset="1" stop-color="#4473E9"/>
</linearGradient>
<linearGradient id="paint18_linear_3784_9708" x1="2.75586" y1="9.00066" x2="4.11621" y2="9.00066" gradientUnits="userSpaceOnUse">
<stop stop-color="#7E43DE"/>
<stop offset="1" stop-color="#4473E9"/>
</linearGradient>
<linearGradient id="paint19_linear_3784_9708" x1="5.4082" y1="8.77014" x2="7.15132" y2="8.77014" gradientUnits="userSpaceOnUse">
<stop stop-color="#7E43DE"/>
<stop offset="1" stop-color="#4473E9"/>
</linearGradient>
<linearGradient id="paint20_linear_3784_9708" x1="2.46875" y1="10.3595" x2="3.8538" y2="10.3595" gradientUnits="userSpaceOnUse">
<stop stop-color="#7E43DE"/>
<stop offset="1" stop-color="#4473E9"/>
</linearGradient>
<linearGradient id="paint21_linear_3784_9708" x1="0.849609" y1="14.3113" x2="10.989" y2="14.3113" gradientUnits="userSpaceOnUse">
<stop stop-color="#7E43DE"/>
<stop offset="1" stop-color="#4473E9"/>
</linearGradient>
<linearGradient id="paint22_linear_3784_9708" x1="0.392578" y1="17.8526" x2="11.4323" y2="17.8526" gradientUnits="userSpaceOnUse">
<stop stop-color="#7E43DE"/>
<stop offset="1" stop-color="#4473E9"/>
</linearGradient>
</defs>
</svg>
