<svg width="15" height="18" viewBox="0 0 15 18" fill="none" xmlns="http://www.w3.org/2000/svg">
<path d="M14.0337 16.9118V9.21777H7.24414V18.0005H12.945C13.2337 18.0002 13.5104 17.8854 13.7145 17.6813C13.9186 17.4772 14.0334 17.2005 14.0337 16.9118ZM11.5811 16.1696C11.592 16.2283 11.5898 16.2887 11.5747 16.3465C11.5597 16.4043 11.5321 16.458 11.4939 16.504C11.4558 16.5499 11.408 16.5869 11.3539 16.6122C11.2999 16.6376 11.2409 16.6508 11.1812 16.6509H10.097C10.0373 16.6508 9.97834 16.6376 9.9243 16.6122C9.87025 16.5869 9.82245 16.5499 9.78428 16.504C9.74612 16.458 9.71853 16.4043 9.70346 16.3465C9.6884 16.2887 9.68623 16.2283 9.69711 16.1696L9.84058 15.3973C9.64128 15.4809 9.4262 15.5202 9.21022 15.5124C8.99424 15.5047 8.78251 15.4502 8.58967 15.3526C8.39683 15.2551 8.22748 15.1168 8.09334 14.9473C7.9592 14.7779 7.86346 14.5813 7.81275 14.3712C7.76204 14.1611 7.75756 13.9426 7.79963 13.7306C7.8417 13.5186 7.92931 13.3183 8.0564 13.1435C8.18349 12.9687 8.34703 12.8236 8.53571 12.7182C8.7244 12.6128 8.93372 12.5496 9.1492 12.5331C9.0745 12.309 9.05408 12.0704 9.08962 11.8368C9.12516 11.6033 9.21564 11.3815 9.35362 11.1898C9.4916 10.9981 9.67313 10.8418 9.88329 10.734C10.0934 10.6261 10.3262 10.5697 10.5624 10.5693C10.7986 10.569 11.0316 10.6247 11.242 10.732C11.4525 10.8392 11.6345 10.9949 11.773 11.1863C11.9116 11.3776 12.0027 11.5991 12.0389 11.8325C12.0751 12.0659 12.0554 12.3046 11.9814 12.5289H12.0141C12.2351 12.5289 12.4533 12.5779 12.653 12.6724C12.8527 12.767 13.0289 12.9047 13.1689 13.0756C13.3089 13.2465 13.4092 13.4464 13.4626 13.6608C13.5159 13.8752 13.5211 14.0987 13.4775 14.3153C13.434 14.5319 13.3429 14.7362 13.2108 14.9133C13.0788 15.0904 12.909 15.236 12.7139 15.3396C12.5187 15.4431 12.303 15.502 12.0823 15.5121C11.8616 15.5221 11.6414 15.483 11.4376 15.3976L11.5811 16.1696Z" fill="url(#paint0_linear_3782_9056)"/>
<path d="M1.08085 18.0005H6.78173V9.21777H-0.0078125V16.9118C-0.00751344 17.2005 0.10728 17.4772 0.311379 17.6813C0.515478 17.8854 0.792209 18.0002 1.08085 18.0005ZM0.648171 13.3853C1.16413 13.0789 1.63978 12.7093 2.06407 12.2849C2.48839 11.8605 2.85815 11.3849 3.16478 10.869C3.18773 10.8302 3.2204 10.7981 3.25955 10.7758C3.29871 10.7534 3.34301 10.7417 3.38809 10.7417C3.43316 10.7417 3.47746 10.7534 3.51662 10.7758C3.55578 10.7981 3.58844 10.8302 3.61139 10.869C4.22274 11.908 5.08872 12.7741 6.12763 13.3856C6.1665 13.4086 6.19872 13.4413 6.2211 13.4806C6.24348 13.5198 6.25525 13.5642 6.25525 13.6093C6.25525 13.6545 6.24348 13.6989 6.2211 13.7381C6.19872 13.7773 6.1665 13.81 6.12763 13.833C5.09033 14.4455 4.22506 15.3108 3.61252 16.3481C3.58954 16.387 3.55683 16.4192 3.51761 16.4416C3.47838 16.464 3.434 16.4757 3.38884 16.4757C3.34368 16.4757 3.2993 16.464 3.26008 16.4416C3.22085 16.4192 3.18814 16.387 3.16516 16.3481C2.85985 15.8292 2.48972 15.3512 2.06369 14.9258C1.63988 14.503 1.16426 14.1356 0.648171 13.8323C0.609381 13.8092 0.577245 13.7765 0.554924 13.7374C0.532603 13.6982 0.520866 13.6539 0.520866 13.6088C0.520866 13.5637 0.532603 13.5193 0.554924 13.4802C0.577245 13.441 0.609381 13.4083 0.648171 13.3853Z" fill="url(#paint1_linear_3782_9056)"/>
<path d="M12.945 0H7.24414V8.78272H14.0337V1.08866C14.0334 0.800022 13.9186 0.523291 13.7145 0.319192C13.5104 0.115093 13.2337 0.000299056 12.945 0ZM13.0764 4.51883L12.7179 4.87619L10.9575 6.631C10.9155 6.67313 10.8656 6.70656 10.8107 6.72937C10.7558 6.75217 10.6969 6.76391 10.6374 6.76391C10.5779 6.76391 10.519 6.75217 10.4641 6.72937C10.4092 6.70656 10.3593 6.67313 10.3173 6.631L8.56138 4.88034L8.20063 4.52109C7.92568 4.24509 7.77163 3.87118 7.77237 3.4816C7.77311 3.09202 7.92858 2.71869 8.20458 2.44374C8.48058 2.1688 8.85449 2.01475 9.24407 2.01549C9.63365 2.01623 10.007 2.1717 10.2819 2.4477L10.6427 2.80732L11.0012 2.44996C11.2768 2.1756 11.6499 2.02157 12.0388 2.02157C12.4277 2.02157 12.8008 2.1756 13.0764 2.44996C13.2127 2.58558 13.3208 2.74678 13.3946 2.9243C13.4683 3.10181 13.5063 3.29216 13.5063 3.48439C13.5063 3.67663 13.4683 3.86697 13.3946 4.04449C13.3208 4.22201 13.2127 4.38321 13.0764 4.51883Z" fill="url(#paint2_linear_3782_9056)"/>
<path d="M-0.0078125 1.08866V8.78272H6.78173V0H1.08085C0.792209 0.000299056 0.515478 0.115093 0.311379 0.319192C0.10728 0.523291 -0.00751344 0.800022 -0.0078125 1.08866ZM0.949426 3.62824L1.31018 3.26862L3.06612 1.51795C3.1081 1.47582 3.15799 1.4424 3.21291 1.41959C3.26784 1.39678 3.32673 1.38504 3.3862 1.38504C3.44568 1.38504 3.50457 1.39678 3.55949 1.41959C3.61442 1.4424 3.66431 1.47582 3.70629 1.51795L5.46675 3.27276L5.82524 3.63013C5.96139 3.7658 6.06942 3.92701 6.14314 4.10452C6.21685 4.28204 6.25479 4.47235 6.25479 4.66456C6.25479 4.85677 6.21685 5.04709 6.14314 5.2246C6.06942 5.40211 5.96139 5.56332 5.82524 5.699C5.58903 5.93492 5.27948 6.08332 4.94762 6.11974C4.61576 6.15615 4.28139 6.07841 3.99964 5.89933L4.20035 6.98159C4.20955 7.03219 4.20754 7.0842 4.19444 7.13394C4.18134 7.18368 4.15748 7.22994 4.12455 7.26945C4.09161 7.30896 4.0504 7.34075 4.00383 7.36259C3.95726 7.38442 3.90647 7.39576 3.85503 7.39582H2.91888C2.86744 7.39584 2.81662 7.38455 2.77003 7.36273C2.72344 7.34091 2.68222 7.30911 2.6493 7.26957C2.61638 7.23004 2.59256 7.18375 2.57954 7.13398C2.56652 7.08421 2.56461 7.03218 2.57395 6.98159L2.77353 5.90573C2.4683 6.09734 2.10327 6.17003 1.74792 6.10996C1.39257 6.04989 1.07171 5.86126 0.846422 5.57997C0.62113 5.29868 0.507132 4.94437 0.526125 4.58448C0.545118 4.2246 0.695778 3.88426 0.949426 3.62824Z" fill="url(#paint3_linear_3782_9056)"/>
<defs>
<linearGradient id="paint0_linear_3782_9056" x1="7.24414" y1="13.6091" x2="13.9287" y2="13.6091" gradientUnits="userSpaceOnUse">
<stop stop-color="#7E43DE"/>
<stop offset="1" stop-color="#4473E9"/>
</linearGradient>
<linearGradient id="paint1_linear_3782_9056" x1="-0.0078125" y1="13.6091" x2="6.67673" y2="13.6091" gradientUnits="userSpaceOnUse">
<stop stop-color="#7E43DE"/>
<stop offset="1" stop-color="#4473E9"/>
</linearGradient>
<linearGradient id="paint2_linear_3782_9056" x1="7.24414" y1="4.39136" x2="13.9287" y2="4.39136" gradientUnits="userSpaceOnUse">
<stop stop-color="#7E43DE"/>
<stop offset="1" stop-color="#4473E9"/>
</linearGradient>
<linearGradient id="paint3_linear_3782_9056" x1="-0.0078125" y1="4.39136" x2="6.67673" y2="4.39136" gradientUnits="userSpaceOnUse">
<stop stop-color="#7E43DE"/>
<stop offset="1" stop-color="#4473E9"/>
</linearGradient>
</defs>
</svg>
