<svg width="22" height="12" viewBox="0 0 22 12" fill="none" xmlns="http://www.w3.org/2000/svg">
<path d="M15.4396 2.03711H6.40812C4.26945 2.03711 2.52734 3.77692 2.52734 5.91788C2.52734 8.05655 4.26945 9.79865 6.40812 9.79865H15.4396C17.5805 9.79865 19.3203 8.05655 19.3203 5.91788C19.3203 3.77692 17.5805 2.03711 15.4396 2.03711ZM7.67344 7.65082C7.67344 7.75397 7.59092 7.8342 7.49006 7.8342H4.9938C4.89065 7.8342 4.81271 7.75168 4.81271 7.65082V4.11388C4.81271 4.01073 4.89065 3.9305 4.9938 3.9305H7.48776C7.59091 3.9305 7.67114 4.01303 7.67114 4.11388V7.65082H7.67344ZM10.878 7.5981C10.878 7.70125 10.7955 7.78148 10.6946 7.78148H8.28317C8.18002 7.78148 8.09979 7.69896 8.09979 7.5981V4.16661C8.09979 4.06345 8.18231 3.98552 8.28317 3.98552H10.6946C10.7978 3.98552 10.878 4.06345 10.878 4.16661V7.5981ZM13.9679 7.65082C13.9679 7.75397 13.89 7.8342 13.7891 7.8342H11.2952C11.192 7.8342 11.1141 7.75168 11.1141 7.65082V4.11388C11.1141 4.01073 11.192 3.9305 11.2952 3.9305H13.7891C13.8877 3.9305 13.9679 4.01303 13.9679 4.11388V7.65082ZM17.0648 7.65082C17.0648 7.75397 16.9822 7.8342 16.8814 7.8342H14.3897C14.2866 7.8342 14.2063 7.75168 14.2063 7.65082V4.11388C14.2063 4.01073 14.2889 3.9305 14.3897 3.9305H16.8791C16.9822 3.9305 17.0625 4.01303 17.0625 4.11388V7.65082H17.0648Z" fill="white"/>
<path d="M10.0737 5.2642C9.99573 5.2046 9.90175 5.1748 9.81235 5.1748C9.69316 5.1748 9.57625 5.22753 9.49373 5.33068L9.49144 5.33755L9.48227 5.33068C9.39975 5.22753 9.28514 5.1748 9.16365 5.1748C9.07425 5.1748 8.98256 5.2046 8.90921 5.2642C8.73041 5.40861 8.70061 5.66305 8.84273 5.83956L8.96422 5.99084L9.41121 6.55015C9.45018 6.60058 9.52353 6.60058 9.5625 6.55015L10.0095 5.99084L10.131 5.83956C10.2754 5.66305 10.2456 5.41091 10.0737 5.2642Z" fill="white"/>
<path d="M8.72147 4.16168C8.68937 4.13875 8.65499 4.125 8.6229 4.125C8.57705 4.125 8.53121 4.14563 8.50141 4.1846L8.49912 4.18689L8.49683 4.1846C8.46703 4.14563 8.42118 4.125 8.37075 4.125C8.33866 4.125 8.30428 4.13875 8.27448 4.16168C8.20571 4.2144 8.19654 4.31296 8.25156 4.37944L8.2974 4.43904L8.46932 4.65222C8.48537 4.67285 8.51516 4.67285 8.52892 4.65222L8.70084 4.43904L8.75127 4.37944C8.7994 4.31296 8.78565 4.2144 8.72147 4.16168Z" fill="white"/>
<path d="M10.6767 7.38002L10.5048 7.16684C10.4888 7.14621 10.459 7.14621 10.4452 7.16684L10.2733 7.38002L10.2229 7.43962C10.1701 7.50838 10.1839 7.60466 10.2481 7.65738C10.2779 7.6826 10.3146 7.69635 10.3467 7.69635C10.3925 7.69635 10.436 7.67343 10.4727 7.63675H10.475C10.5048 7.67343 10.5507 7.69635 10.6011 7.69635C10.6332 7.69635 10.6676 7.6826 10.6974 7.65738C10.7661 7.60466 10.7753 7.50838 10.7203 7.43962L10.6767 7.38002Z" fill="white"/>
<path d="M15.71 5.03489C15.6711 4.98446 15.5977 4.98446 15.5588 5.03489C15.3502 5.29621 15.1439 5.55752 14.933 5.82113C14.9078 5.85781 14.9078 5.90365 14.933 5.94262C15.1439 6.20394 15.3525 6.46525 15.5588 6.72657C15.5977 6.777 15.6711 6.777 15.71 6.72657C15.9186 6.46525 16.1295 6.20394 16.3381 5.94262C16.3633 5.90365 16.3633 5.85781 16.3381 5.82113C16.1272 5.55752 15.9163 5.29392 15.71 5.03489Z" fill="white"/>
<path d="M16.7581 7.14606C16.7489 7.1323 16.7214 7.1323 16.7053 7.14606C16.6366 7.24233 16.5632 7.32944 16.4876 7.42342C16.4807 7.43259 16.4807 7.45322 16.4876 7.46239C16.5632 7.55179 16.6366 7.64577 16.7053 7.73516C16.7214 7.75579 16.7489 7.75579 16.7581 7.73516C16.8337 7.64577 16.9071 7.55179 16.9781 7.46239C16.9873 7.45322 16.9873 7.43259 16.9781 7.42342C16.9071 7.32944 16.8337 7.24233 16.7581 7.14606Z" fill="white"/>
<path d="M14.5728 4.02008C14.559 4.00633 14.5338 4.00633 14.5201 4.02008C14.4444 4.11636 14.3757 4.20346 14.3023 4.29973C14.2886 4.3089 14.2886 4.32495 14.3023 4.3387C14.3757 4.43039 14.4444 4.51979 14.5201 4.61148C14.5338 4.62753 14.559 4.62753 14.5728 4.61148C14.6461 4.51979 14.7149 4.43039 14.7906 4.3387C14.7997 4.32495 14.7997 4.3089 14.7906 4.29973C14.7149 4.20575 14.6461 4.11636 14.5728 4.02008Z" fill="white"/>
<path d="M12.9528 5.55785C12.9138 5.55785 12.8748 5.56702 12.8404 5.57848C12.8542 5.54181 12.8634 5.50055 12.8634 5.45929C12.8634 5.28049 12.719 5.13379 12.5379 5.13379C12.3637 5.13379 12.2192 5.28278 12.2192 5.45929C12.2192 5.49826 12.2284 5.54181 12.2422 5.57848C12.2101 5.56932 12.1665 5.55785 12.1298 5.55785C11.9488 5.55785 11.8066 5.70227 11.8066 5.88335C11.8066 6.05756 11.9488 6.20198 12.1298 6.20198C12.2284 6.20198 12.3178 6.15613 12.3728 6.08736C12.3705 6.18593 12.3568 6.29596 12.3178 6.40369C12.2972 6.46558 12.2788 6.51831 12.2559 6.56186C12.2399 6.59166 12.2628 6.62833 12.2949 6.62833H12.79C12.8221 6.62833 12.845 6.59166 12.8267 6.56186C12.8038 6.52289 12.7877 6.47246 12.7671 6.41974C12.7235 6.29825 12.7075 6.18593 12.7052 6.07819C12.7602 6.15384 12.8542 6.20427 12.9551 6.20427C13.1361 6.20427 13.2783 6.05986 13.2783 5.88565C13.276 5.70456 13.1339 5.55785 12.9528 5.55785Z" fill="white"/>
<path d="M11.5729 4.14144C11.5569 4.14144 11.5477 4.14373 11.5339 4.14832C11.5408 4.13915 11.5431 4.1231 11.5431 4.10935C11.5431 4.04746 11.4927 4.00391 11.4354 4.00391C11.3758 4.00391 11.3276 4.04746 11.3276 4.10935C11.3276 4.1231 11.3299 4.13915 11.3368 4.14832C11.323 4.14602 11.3116 4.14144 11.2978 4.14144C11.2382 4.14144 11.1924 4.19187 11.1924 4.24918C11.1924 4.30877 11.2382 4.35462 11.2978 4.35462C11.3299 4.35462 11.3597 4.33857 11.3803 4.31794C11.3803 4.35004 11.3712 4.38671 11.3597 4.42339C11.3574 4.43943 11.3505 4.46006 11.3391 4.47611C11.3322 4.48528 11.3391 4.49674 11.3528 4.49674H11.5179C11.5271 4.49674 11.5385 4.48757 11.5271 4.47611C11.5202 4.46006 11.5133 4.44402 11.511 4.43026C11.495 4.38671 11.4881 4.35233 11.4881 4.31107C11.5087 4.33628 11.5385 4.35462 11.5729 4.35462C11.6279 4.35462 11.6783 4.30877 11.6783 4.24918C11.6783 4.19187 11.6302 4.14144 11.5729 4.14144Z" fill="white"/>
<path d="M13.7799 7.41263C13.7433 7.41263 13.7135 7.42867 13.6951 7.45618C13.6951 7.41721 13.702 7.38054 13.718 7.34386C13.7203 7.32323 13.7272 7.30718 13.7387 7.29343C13.7455 7.27968 13.7387 7.27051 13.7249 7.27051H13.5599C13.5461 7.27051 13.5392 7.27968 13.5461 7.29343C13.5553 7.30718 13.5622 7.32552 13.5667 7.34615C13.5828 7.38283 13.5874 7.41492 13.5874 7.45159C13.5667 7.42867 13.5369 7.41263 13.5049 7.41263C13.4498 7.41263 13.3994 7.46306 13.3994 7.52036C13.3994 7.57538 13.4498 7.62581 13.5049 7.62581C13.5186 7.62581 13.5301 7.62351 13.5438 7.61893C13.5369 7.63497 13.5347 7.64414 13.5347 7.66248C13.5347 7.72208 13.5851 7.77022 13.6424 7.77022C13.702 7.77022 13.7501 7.71979 13.7501 7.66248C13.7501 7.64644 13.7478 7.63727 13.7433 7.61893C13.7524 7.62122 13.7662 7.62581 13.7799 7.62581C13.8349 7.62581 13.8854 7.57538 13.8854 7.52036C13.8854 7.46306 13.8349 7.41263 13.7799 7.41263Z" fill="white"/>
<path d="M6.77693 5.59859L6.31848 5.02782C6.2818 4.9751 6.20387 4.9751 6.16261 5.02782L5.70416 5.59859L5.57808 5.75446C5.43597 5.93326 5.46576 6.19687 5.64456 6.34128C5.7225 6.40317 5.81648 6.43297 5.90817 6.43297C5.97464 6.43297 6.04341 6.41692 6.10301 6.38254L6.05716 6.45818L5.92651 6.6897C5.90588 6.72638 5.93338 6.77451 5.97694 6.77451H6.51103C6.55458 6.77451 6.5798 6.72408 6.55687 6.6897L6.42622 6.45818L6.38037 6.38254C6.44226 6.41463 6.50874 6.43297 6.5775 6.43297C6.66919 6.43297 6.76088 6.40317 6.84111 6.34128C7.01532 6.19687 7.04971 5.93326 6.903 5.75446L6.77693 5.59859Z" fill="white"/>
<path d="M5.35397 4.25297L5.20268 4.065C5.19351 4.05125 5.166 4.05125 5.14996 4.065L4.99867 4.25297L4.96199 4.30569C4.91156 4.3607 4.91844 4.4501 4.98262 4.49595C5.00784 4.51658 5.03764 4.52804 5.06744 4.52804C5.09036 4.52804 5.11328 4.52116 5.12933 4.51199L5.11557 4.53491L5.07202 4.61285C5.06515 4.62202 5.07202 4.63806 5.08807 4.63806H5.26228C5.27603 4.63806 5.2852 4.62202 5.27832 4.61285L5.23248 4.53491L5.21873 4.51199C5.24165 4.52116 5.26228 4.52804 5.28062 4.52804C5.31042 4.52804 5.34709 4.51428 5.36543 4.49595C5.42732 4.4501 5.43878 4.3607 5.38835 4.30569L5.35397 4.25297Z" fill="white"/>
<path d="M7.42834 7.24577C7.40541 7.24577 7.38249 7.24806 7.36645 7.25952L7.37562 7.23431L7.42146 7.16096C7.42834 7.1472 7.42146 7.13574 7.40541 7.13574H7.22662C7.21287 7.13574 7.20599 7.14949 7.21287 7.16096L7.25871 7.23431L7.26788 7.25952C7.24725 7.25035 7.22433 7.24577 7.20599 7.24577C7.1739 7.24577 7.1441 7.25265 7.11659 7.27557C7.06158 7.32141 7.05012 7.40623 7.10055 7.46583L7.13951 7.51855L7.2908 7.70193C7.29997 7.72256 7.32748 7.72256 7.34123 7.70193L7.49023 7.51855L7.53378 7.46583C7.58421 7.40623 7.57046 7.32141 7.51315 7.27557C7.48793 7.25265 7.45814 7.24577 7.42834 7.24577Z" fill="white"/>
<path d="M15.6017 0.400391H6.24478C3.24882 0.400391 0.814453 2.83705 0.814453 5.83072V6.00493C0.814453 8.99861 3.25111 11.4353 6.24478 11.4353H15.6017C18.5954 11.4353 21.0321 8.99861 21.0321 6.00493V5.83072C21.0321 2.83705 18.5977 0.400391 15.6017 0.400391ZM15.5375 0.6342C15.5375 0.567725 15.5926 0.512711 15.659 0.512711C15.7255 0.512711 15.7805 0.567725 15.7805 0.6342V1.30583C15.7805 1.3723 15.7255 1.42732 15.659 1.42732C15.5926 1.42732 15.5375 1.3723 15.5375 1.30583V0.6342ZM10.8018 0.6342C10.8018 0.567725 10.8568 0.512711 10.9233 0.512711C10.9897 0.512711 11.0447 0.567725 11.0447 0.6342V1.30583C11.0447 1.3723 10.9897 1.42732 10.9233 1.42732C10.8568 1.42732 10.8018 1.3723 10.8018 1.30583V0.6342ZM6.06599 0.6342C6.06599 0.567725 6.121 0.512711 6.18748 0.512711C6.25395 0.512711 6.30897 0.567725 6.30897 0.6342V1.30583C6.30897 1.3723 6.25395 1.42732 6.18748 1.42732C6.121 1.42732 6.06599 1.3723 6.06599 1.30583V0.6342ZM6.30897 11.2015C6.30897 11.2679 6.25395 11.3229 6.18748 11.3229C6.121 11.3229 6.06599 11.2679 6.06599 11.2015V10.5298C6.06599 10.4634 6.121 10.4083 6.18748 10.4083C6.25395 10.4083 6.30897 10.4634 6.30897 10.5298V11.2015ZM11.0447 11.2015C11.0447 11.2679 10.9897 11.3229 10.9233 11.3229C10.8568 11.3229 10.8018 11.2679 10.8018 11.2015V10.5298C10.8018 10.4634 10.8568 10.4083 10.9233 10.4083C10.9897 10.4083 11.0447 10.4634 11.0447 10.5298V11.2015ZM15.7805 11.2015C15.7805 11.2679 15.7255 11.3229 15.659 11.3229C15.5926 11.3229 15.5375 11.2679 15.5375 11.2015V10.5298C15.5375 10.4634 15.5926 10.4083 15.659 10.4083C15.7255 10.4083 15.7805 10.4634 15.7805 10.5298V11.2015ZM19.8859 6.00493C19.8859 8.37053 17.9673 10.2891 15.6017 10.2891H6.24478C3.87919 10.2891 1.96058 8.37053 1.96058 6.00493V5.83072C1.96058 3.46512 3.87919 1.54651 6.24478 1.54651H15.6017C17.9673 1.54651 19.8859 3.46512 19.8859 5.83072V6.00493Z" fill="white"/>
</svg>
