<svg width="18" height="14" viewBox="0 0 18 14" fill="none" xmlns="http://www.w3.org/2000/svg">
<path d="M17.28 9.38054L16.4369 4.95518V4.95435C16.2618 4.03327 15.7283 3.21921 14.954 2.69068L14.8055 2.59525V1.60696C14.8055 1.31321 14.6893 1.03191 14.4819 0.824447C14.2744 0.616995 13.9931 0.5 13.6994 0.5H12.4754C11.8647 0.5 11.3693 0.99539 11.3693 1.60696V2.44755C11.1129 2.57368 10.8739 2.73134 10.6565 2.91638C10.6191 2.94377 10.5727 2.9587 10.5262 2.9587H7.43022C7.38375 2.96036 7.33894 2.94543 7.30243 2.91638C7.08502 2.73134 6.84604 2.57367 6.58961 2.44755V1.60696C6.58961 1.31321 6.47344 1.03191 6.26517 0.824447C6.05772 0.616995 5.77641 0.5 5.48348 0.5H4.26863C3.65706 0.5 3.16167 0.99539 3.16167 1.60696V2.59608L3.00484 2.69068C2.2273 3.2201 1.69291 4.0383 1.52197 4.96348L0.681375 9.38885C0.500477 10.3406 0.717888 11.3248 1.28215 12.1122C1.84641 12.8997 2.70943 13.4217 3.6686 13.5561C4.58471 13.6756 5.51161 13.4383 6.25687 12.8922C7.00203 12.3462 7.50821 11.5338 7.66919 10.6235L7.93059 9.24681V9.24764C7.95134 9.14143 8.04427 9.06592 8.15216 9.06841H9.81426H9.81343C9.9213 9.06592 10.0142 9.14143 10.035 9.24764L10.2964 10.6218C10.4433 11.4466 10.8731 12.1943 11.5112 12.737C12.1494 13.2797 12.9568 13.5826 13.7949 13.5959C13.9608 13.5942 14.126 13.5809 14.2903 13.556C15.2504 13.4183 16.1125 12.8947 16.6767 12.1064C17.2409 11.318 17.4593 10.3331 17.28 9.38054ZM4.04704 1.60684C4.04704 1.48403 4.14578 1.38527 4.2686 1.38527H5.48346C5.54154 1.38527 5.59797 1.40851 5.63946 1.45C5.68095 1.49149 5.70419 1.54791 5.70419 1.60683V2.14704H5.67348V2.14621C5.13327 2.04249 4.57647 2.06655 4.04707 2.21509L4.04704 1.60684ZM4.89925 12.6027V12.6019C4.61213 12.6882 4.31258 12.723 4.01383 12.7064V11.748C4.013 10.8609 3.29439 10.1423 2.40732 10.1415H1.50698C1.49868 9.94234 1.51361 9.74235 1.55096 9.54651L1.60655 9.25691L2.40731 9.25608C3.78314 9.25774 4.89764 10.3722 4.89913 11.7479L4.89925 12.6027ZM5.80871 6.87619H5.36643V7.31847L5.3656 7.31764C5.3656 7.56243 5.1681 7.76075 4.92331 7.76075C4.67853 7.76075 4.48103 7.56243 4.48103 7.31764V6.87536H4.03792C3.79397 6.87536 3.59564 6.67704 3.59564 6.43308C3.59564 6.1883 3.79396 5.98997 4.03792 5.98997H4.4802V5.54769H4.48103C4.48103 5.3029 4.67853 5.10541 4.92332 5.10541C5.1681 5.10541 5.3656 5.3029 5.3656 5.54769V5.98997H5.80871C6.05266 5.98997 6.25099 6.18829 6.25099 6.43308C6.25099 6.67704 6.05267 6.87536 5.80871 6.87536V6.87619ZM14.0073 5.88373C14.2388 5.8829 14.4487 6.02231 14.5384 6.23641C14.6271 6.45133 14.579 6.69779 14.4147 6.86209C14.2504 7.02639 14.0031 7.07535 13.789 6.98656C13.5741 6.89694 13.4355 6.68699 13.4364 6.45465C13.4372 6.14015 13.6919 5.88539 14.0073 5.88373ZM12.2547 1.60684C12.2547 1.48403 12.3535 1.38527 12.4755 1.38527H13.6903C13.7492 1.38527 13.8057 1.40851 13.8471 1.45C13.8886 1.49149 13.9119 1.54791 13.9119 1.60683V2.20678V2.20595C13.3824 2.05741 12.8256 2.03418 12.2855 2.1379H12.2548L12.2547 1.60684ZM12.741 4.61168C12.9734 4.61168 13.1825 4.75108 13.2704 4.96518C13.3592 5.17927 13.3102 5.42656 13.1468 5.59003C12.9825 5.75433 12.736 5.80329 12.5219 5.7145C12.3078 5.62571 12.1684 5.41661 12.1684 5.18508C12.1684 5.03239 12.2282 4.88719 12.336 4.77929C12.4431 4.67225 12.5892 4.61168 12.741 4.61168ZM11.4648 7.02808C11.2324 7.02808 11.0233 6.88867 10.9353 6.67457C10.8465 6.46049 10.8955 6.21319 11.059 6.04973C11.2233 5.88543 11.4697 5.83647 11.6838 5.92526C11.8979 6.01405 12.0373 6.22315 12.0373 6.45468C12.0373 6.77167 11.7809 7.02808 11.4648 7.02808ZM12.1635 7.72762C12.1635 7.49611 12.3029 7.28699 12.5161 7.1982C12.7302 7.10941 12.9767 7.15753 13.1402 7.32018C13.3045 7.48365 13.3551 7.72928 13.2679 7.94337C13.18 8.15828 12.9725 8.29853 12.741 8.30019C12.5883 8.30185 12.4414 8.2421 12.3336 8.13422C12.2249 8.02635 12.1635 7.88031 12.1635 7.72762ZM15.5515 10.1415C14.6644 10.1423 13.9458 10.8609 13.945 11.748V12.7064C13.6463 12.723 13.3467 12.6882 13.0596 12.6019V11.748C13.0612 10.3722 14.1757 9.25766 15.5514 9.25617H16.3546L16.4102 9.54578V9.54661C16.4476 9.74244 16.4625 9.94243 16.4542 10.1416L15.5515 10.1415Z" fill="url(#paint0_linear_3784_9506)"/>
<defs>
<linearGradient id="paint0_linear_3784_9506" x1="0.619141" y1="7.04793" x2="17.0826" y2="7.04793" gradientUnits="userSpaceOnUse">
<stop stop-color="#7E43DE"/>
<stop offset="1" stop-color="#4473E9"/>
</linearGradient>
</defs>
</svg>
