<svg width="20" height="13" viewBox="0 0 20 13" fill="none" xmlns="http://www.w3.org/2000/svg">
<path d="M15.8446 3.49904L17.8248 2.6803C17.9962 2.60414 18.1294 2.47086 18.2056 2.29949C18.2818 2.12813 18.2818 1.93773 18.2056 1.76636C18.0533 1.4046 17.6534 1.25227 17.2917 1.38556L15.3115 2.20429C15.0449 2.31853 14.8926 2.56606 14.8926 2.85166C14.8926 2.94687 14.9116 3.02303 14.9497 3.11823C15.083 3.46096 15.5019 3.63232 15.8446 3.49904Z" fill="url(#paint0_linear_3784_9431)"/>
<path d="M17.8263 9.3441L15.8461 8.52536C15.5033 8.37304 15.0844 8.5444 14.9321 8.90617C14.894 8.98233 14.875 9.07753 14.875 9.17274C14.875 9.45834 15.0464 9.70587 15.2939 9.82011L17.2741 10.6388C17.6359 10.7912 18.0357 10.6198 18.188 10.258C18.3403 9.89627 18.188 9.49642 17.8263 9.3441Z" fill="url(#paint1_linear_3784_9431)"/>
<path d="M18.3605 5.32617H16.2089C15.8281 5.32617 15.5234 5.63082 15.5234 6.01162C15.5234 6.39243 15.8281 6.69708 16.2089 6.69708H18.3414C18.7222 6.69708 19.0269 6.39243 19.0269 6.01162C19.0269 5.63082 18.7413 5.32617 18.3605 5.32617Z" fill="url(#paint2_linear_3784_9431)"/>
<path d="M4.68954 2.20347L2.70934 1.38474C2.34757 1.23242 1.94773 1.40378 1.7954 1.76555C1.71924 1.93691 1.71924 2.12731 1.7954 2.29868C1.87156 2.47004 2.00485 2.60332 2.17621 2.67948L4.15641 3.49822C4.49913 3.65054 4.91802 3.47918 5.07035 3.11741C5.10843 3.04125 5.12747 2.94605 5.12747 2.85085C5.10843 2.56524 4.93706 2.31772 4.68954 2.20347Z" fill="url(#paint3_linear_3784_9431)"/>
<path d="M4.15672 8.52571L2.17652 9.34444C1.81475 9.49677 1.66243 9.89662 1.79571 10.2584C1.94803 10.6201 2.34788 10.7725 2.70965 10.6392L4.68985 9.82045C4.95641 9.70621 5.10874 9.45869 5.10874 9.17308C5.10874 9.07788 5.0897 9.00172 5.05161 8.90651C4.91833 8.56379 4.49944 8.39243 4.15672 8.52571Z" fill="url(#paint4_linear_3784_9431)"/>
<path d="M4.4795 6.01162C4.4795 5.63082 4.17485 5.32617 3.79405 5.32617H1.64248C1.26168 5.32617 0.957031 5.63082 0.957031 6.01162C0.957031 6.39243 1.26168 6.69708 1.64248 6.69708H3.77501C4.17485 6.69708 4.4795 6.39243 4.4795 6.01162Z" fill="url(#paint5_linear_3784_9431)"/>
<path d="M13.0854 4.20294L11.4289 4.29814L11.7145 0.642392C11.7526 0.0330997 10.9529 -0.252506 10.6292 0.280625L6.38321 6.90667C6.11664 7.30652 6.44033 7.83965 6.91634 7.82061L8.57285 7.72541L8.28724 11.3812C8.23012 11.9904 9.04886 12.2761 9.37254 11.7429L13.6185 5.11688C13.8851 4.69799 13.5614 4.16486 13.0854 4.20294Z" fill="url(#paint6_linear_3784_9431)"/>
<defs>
<linearGradient id="paint0_linear_3784_9431" x1="14.8926" y1="2.44108" x2="18.2106" y2="2.44108" gradientUnits="userSpaceOnUse">
<stop stop-color="#7E43DE"/>
<stop offset="1" stop-color="#4473E9"/>
</linearGradient>
<linearGradient id="paint1_linear_3784_9431" x1="14.875" y1="9.5821" x2="18.1946" y2="9.5821" gradientUnits="userSpaceOnUse">
<stop stop-color="#7E43DE"/>
<stop offset="1" stop-color="#4473E9"/>
</linearGradient>
<linearGradient id="paint2_linear_3784_9431" x1="15.5234" y1="6.01162" x2="18.9727" y2="6.01162" gradientUnits="userSpaceOnUse">
<stop stop-color="#7E43DE"/>
<stop offset="1" stop-color="#4473E9"/>
</linearGradient>
<linearGradient id="paint3_linear_3784_9431" x1="1.73828" y1="2.44148" x2="5.07506" y2="2.44148" gradientUnits="userSpaceOnUse">
<stop stop-color="#7E43DE"/>
<stop offset="1" stop-color="#4473E9"/>
</linearGradient>
<linearGradient id="paint4_linear_3784_9431" x1="1.74805" y1="9.58366" x2="5.05677" y2="9.58366" gradientUnits="userSpaceOnUse">
<stop stop-color="#7E43DE"/>
<stop offset="1" stop-color="#4473E9"/>
</linearGradient>
<linearGradient id="paint5_linear_3784_9431" x1="0.957031" y1="6.01162" x2="4.42503" y2="6.01162" gradientUnits="userSpaceOnUse">
<stop stop-color="#7E43DE"/>
<stop offset="1" stop-color="#4473E9"/>
</linearGradient>
<linearGradient id="paint6_linear_3784_9431" x1="6.28711" y1="6.01178" x2="13.5998" y2="6.01178" gradientUnits="userSpaceOnUse">
<stop stop-color="#7E43DE"/>
<stop offset="1" stop-color="#4473E9"/>
</linearGradient>
</defs>
</svg>
