<svg width="18" height="18" viewBox="0 0 18 18" fill="none" xmlns="http://www.w3.org/2000/svg">
<path d="M5.20313 1.12506C5.12854 1.12506 5.057 1.1547 5.00425 1.20744C4.95151 1.26018 4.92188 1.33172 4.92188 1.40631V3.09381C4.92188 3.16841 4.95151 3.23994 5.00425 3.29269C5.057 3.34543 5.12854 3.37506 5.20313 3.37506C5.27772 3.37506 5.34926 3.34543 5.402 3.29269C5.45475 3.23994 5.48438 3.16841 5.48438 3.09381V2.81678L6.16036 3.31952C6.22029 3.36282 6.29486 3.38079 6.36793 3.36952C6.44101 3.35826 6.5067 3.31867 6.55081 3.25934C6.59492 3.2 6.61389 3.12568 6.60361 3.05246C6.59333 2.97924 6.55463 2.91301 6.49589 2.86811L5.67183 2.25527L6.49772 1.63061C6.55558 1.58506 6.59326 1.51863 6.60267 1.4456C6.61208 1.37256 6.59248 1.29875 6.54807 1.24001C6.50366 1.18128 6.43798 1.1423 6.36515 1.13146C6.29231 1.12061 6.21813 1.13877 6.15854 1.18202L5.48438 1.69178V1.40631C5.48438 1.33172 5.45475 1.26018 5.402 1.20744C5.34926 1.1547 5.27772 1.12506 5.20313 1.12506ZM8.40235 1.68756C8.47694 1.68756 8.54848 1.65793 8.60122 1.60519C8.65397 1.55244 8.6836 1.48091 8.6836 1.40631C8.6836 1.33172 8.65397 1.26018 8.60122 1.20744C8.54848 1.1547 8.47694 1.12506 8.40235 1.12506H7.73438C7.58524 1.12521 7.44225 1.18452 7.3368 1.28998C7.23134 1.39544 7.17203 1.53843 7.17188 1.68756V2.81256C7.17203 2.9617 7.23134 3.10469 7.3368 3.21015C7.44225 3.3156 7.58524 3.37492 7.73438 3.37506H8.40235C8.47694 3.37506 8.54848 3.34543 8.60122 3.29269C8.65397 3.23994 8.6836 3.16841 8.6836 3.09381C8.6836 3.01922 8.65397 2.94769 8.60122 2.89494C8.54848 2.8422 8.47694 2.81256 8.40235 2.81256H7.73438V2.53131H8.40235C8.47694 2.53131 8.54848 2.50168 8.60122 2.44894C8.65397 2.39619 8.6836 2.32466 8.6836 2.25006C8.6836 2.17547 8.65397 2.10394 8.60122 2.05119C8.54848 1.99845 8.47694 1.96881 8.40235 1.96881H7.73438V1.68756H8.40235ZM10.2656 1.40631V2.16499L9.65588 1.25022C9.62239 1.2 9.57363 1.16188 9.51681 1.1415C9.45998 1.12113 9.39811 1.11958 9.34034 1.13708C9.28256 1.15458 9.23195 1.19021 9.19599 1.23869C9.16003 1.28718 9.14062 1.34595 9.14063 1.40631V3.09381C9.14063 3.16841 9.17026 3.23994 9.22301 3.29269C9.27575 3.34543 9.34729 3.37506 9.42188 3.37506C9.49647 3.37506 9.56801 3.34543 9.62075 3.29269C9.6735 3.23994 9.70313 3.16841 9.70313 3.09381V2.33514L10.3129 3.24977C10.3464 3.29998 10.3951 3.33809 10.4519 3.35847C10.5087 3.37885 10.5706 3.38041 10.6284 3.36293C10.6861 3.34544 10.7367 3.30984 10.7727 3.26138C10.8087 3.21292 10.8281 3.15417 10.8281 3.09381V1.40631C10.8281 1.33172 10.7985 1.26018 10.7458 1.20744C10.693 1.1547 10.6215 1.12506 10.5469 1.12506C10.4723 1.12506 10.4008 1.1547 10.348 1.20744C10.2953 1.26018 10.2656 1.33172 10.2656 1.40631ZM13.0781 2.81256V1.68756C13.078 1.53843 13.0187 1.39544 12.9132 1.28998C12.8078 1.18452 12.6648 1.12521 12.5156 1.12506H11.9531C11.804 1.12521 11.661 1.18452 11.5555 1.28998C11.4501 1.39544 11.3908 1.53843 11.3906 1.68756V2.81256C11.3908 2.9617 11.4501 3.10469 11.5555 3.21015C11.661 3.3156 11.804 3.37492 11.9531 3.37506H12.5156C12.6648 3.37492 12.8078 3.3156 12.9132 3.21015C13.0187 3.10469 13.078 2.9617 13.0781 2.81256ZM11.9531 1.68756H12.5156V2.81256H11.9531V1.68756ZM6.58688 11.8055C6.65169 11.8773 6.71271 11.9524 6.76969 12.0305C6.71204 11.9532 6.65016 11.8787 6.58688 11.8055ZM7.53188 13.7771H7.53047C7.5136 13.6801 7.49391 13.5859 7.47 13.4916C7.49532 13.5859 7.51501 13.6801 7.53188 13.7771ZM7.56985 14.9176C7.57126 14.8993 7.57407 14.8824 7.57547 14.8641L7.57125 14.9176H7.56985ZM3.51563 10.9688C2.8203 10.9688 2.14059 11.175 1.56245 11.5613C0.984309 11.9476 0.533702 12.4967 0.267613 13.1391C0.00152326 13.7815 -0.0680979 14.4883 0.0675534 15.1703C0.203205 15.8523 0.538036 16.4787 1.0297 16.9704C1.52137 17.462 2.1478 17.7969 2.82976 17.9325C3.51173 18.0682 4.2186 17.9986 4.861 17.7325C5.5034 17.4664 6.05246 17.0158 6.43876 16.4376C6.82507 15.8595 7.03125 15.1798 7.03125 14.4844C7.03044 13.5523 6.65978 12.6586 6.00065 11.9994C5.34152 11.3403 4.44778 10.9696 3.51563 10.9688ZM3.51563 17.4376C2.93155 17.4376 2.3606 17.2644 1.87496 16.9399C1.38932 16.6154 1.01081 16.1542 0.787295 15.6146C0.56378 15.0749 0.505298 14.4812 0.619245 13.9083C0.733192 13.3355 1.01445 12.8093 1.42745 12.3963C1.84045 11.9833 2.36665 11.702 2.9395 11.5881C3.51235 11.4741 4.10613 11.5326 4.64574 11.7561C5.18535 11.9796 5.64657 12.3581 5.97106 12.8438C6.29556 13.3294 6.46875 13.9004 6.46875 14.4844C6.4679 15.2674 6.15649 16.018 5.60286 16.5717C5.04922 17.1253 4.29858 17.4367 3.51563 17.4376ZM14.4844 3.51569C13.7891 3.51569 13.1093 3.72188 12.5312 4.10818C11.9531 4.49448 11.5025 5.04355 11.2364 5.68595C10.9703 6.32834 10.9007 7.03522 11.0363 7.71718C11.172 8.39915 11.5068 9.02557 11.9985 9.51724C12.4901 10.0089 13.1166 10.3437 13.7985 10.4794C14.4805 10.615 15.1874 10.5454 15.8298 10.2793C16.4722 10.0132 17.0212 9.56264 17.4075 8.98449C17.7938 8.40635 18 7.72664 18 7.03132C17.9992 6.09917 17.6285 5.20543 16.9694 4.5463C16.3103 3.88717 15.4165 3.51651 14.4844 3.51569ZM14.4844 9.98444C13.9003 9.98444 13.3294 9.81124 12.8437 9.48675C12.3581 9.16226 11.9796 8.70104 11.7561 8.16143C11.5325 7.62182 11.4741 7.02804 11.588 6.45519C11.7019 5.88234 11.9832 5.35614 12.3962 4.94314C12.8092 4.53014 13.3354 4.24888 13.9083 4.13493C14.4811 4.02099 15.0749 4.07947 15.6145 4.30298C16.1541 4.5265 16.6153 4.90501 16.9398 5.39065C17.2643 5.87629 17.4375 6.44724 17.4375 7.03132C17.4367 7.81427 17.1252 8.56491 16.5716 9.11855C16.018 9.67218 15.2673 9.98359 14.4844 9.98444Z" fill="url(#paint0_linear_3784_9536)"/>
<path d="M14.3438 4.5C13.9266 4.5 13.5187 4.62371 13.1719 4.8555C12.825 5.08728 12.5546 5.41672 12.3949 5.80216C12.2353 6.18759 12.1935 6.61172 12.2749 7.0209C12.3563 7.43008 12.5572 7.80593 12.8522 8.10093C13.1472 8.39593 13.5231 8.59683 13.9322 8.67822C14.3414 8.75961 14.7655 8.71784 15.151 8.55819C15.5364 8.39853 15.8659 8.12817 16.0976 7.78128C16.3294 7.4344 16.4531 7.02657 16.4531 6.60938C16.4525 6.05014 16.23 5.514 15.8346 5.11856C15.4391 4.72312 14.903 4.50067 14.3438 4.5ZM14.7513 6.27469L14.4931 7.2443C14.4838 7.28023 14.4675 7.31396 14.4451 7.34356C14.4227 7.37315 14.3947 7.39803 14.3627 7.41674C14.3306 7.43546 14.2952 7.44765 14.2584 7.45261C14.2216 7.45757 14.1842 7.45521 14.1484 7.44565C14.1125 7.4361 14.0789 7.41954 14.0495 7.39693C14.0201 7.37433 13.9954 7.34612 13.9769 7.31394C13.9584 7.28176 13.9465 7.24624 13.9418 7.20943C13.9371 7.17262 13.9398 7.13524 13.9496 7.09946L14.155 6.32813H13.9219C13.8473 6.32813 13.7758 6.2985 13.723 6.24575C13.6703 6.19301 13.6406 6.12147 13.6406 6.04688C13.6406 5.97229 13.6703 5.90075 13.723 5.848C13.7758 5.79526 13.8473 5.76563 13.9219 5.76563H14.3845C14.442 5.7658 14.4986 5.77927 14.55 5.80499C14.6014 5.8307 14.6461 5.86796 14.6807 5.91385C14.7192 5.96465 14.7455 6.02356 14.7578 6.0861C14.77 6.14863 14.7678 6.21314 14.7513 6.27469ZM3.65625 11.9531C3.23906 11.9531 2.83123 12.0768 2.48435 12.3086C2.13746 12.5404 1.8671 12.8698 1.70744 13.2553C1.54779 13.6407 1.50602 14.0648 1.58741 14.474C1.6688 14.8832 1.8697 15.2591 2.1647 15.5541C2.4597 15.8491 2.83555 16.05 3.24473 16.1313C3.65391 16.2127 4.07804 16.171 4.46348 16.0113C4.84891 15.8517 5.17835 15.5813 5.41013 15.2344C5.64192 14.8875 5.76563 14.4797 5.76563 14.0625C5.76496 13.5033 5.54251 12.9671 5.14707 12.5717C4.75163 12.1763 4.21549 11.9538 3.65625 11.9531ZM4.0313 14.9063H3.717C3.65235 14.9063 3.58856 14.8914 3.53055 14.8629C3.47255 14.8343 3.42189 14.7928 3.38247 14.7416C3.34306 14.6903 3.31595 14.6307 3.30325 14.5673C3.29054 14.5039 3.29257 14.4384 3.30919 14.376L3.45825 13.8161L3.43364 13.7813H3.23438C3.15979 13.7813 3.08825 13.7516 3.0355 13.6989C2.98276 13.6461 2.95313 13.5746 2.95313 13.5C2.95313 13.4254 2.98276 13.3539 3.0355 13.3011C3.08825 13.2484 3.15979 13.2188 3.23438 13.2188H3.69703C3.75449 13.2189 3.81112 13.2324 3.8625 13.2581C3.91388 13.2838 3.95861 13.3211 3.99319 13.367C4.03166 13.4178 4.05802 13.4767 4.07025 13.5392C4.08249 13.6018 4.08028 13.6663 4.06378 13.7278L3.89982 14.3438H4.0313C4.10589 14.3438 4.17743 14.3734 4.23017 14.4261C4.28292 14.4789 4.31255 14.5504 4.31255 14.625C4.31255 14.6996 4.28292 14.7711 4.23017 14.8239C4.17743 14.8766 4.10589 14.9063 4.0313 14.9063Z" fill="url(#paint1_linear_3784_9536)"/>
<path d="M16.0313 3.25828V0.8325C16.0308 0.611845 15.943 0.400354 15.7869 0.244326C15.6309 0.0882987 15.4194 0.000445921 15.1988 0H2.80125C2.5806 0.000445921 2.3691 0.0882987 2.21308 0.244326C2.05705 0.400354 1.9692 0.611845 1.96875 0.8325V10.7114C2.45957 10.5099 2.98505 10.4062 3.51563 10.4063C3.5325 10.4063 3.55078 10.4063 3.56766 10.4077C3.34968 10.2324 3.19594 9.98984 3.13049 9.71791C3.06504 9.44598 3.09158 9.16002 3.20595 8.90478C3.32032 8.64954 3.51607 8.4394 3.76257 8.30725C4.00908 8.1751 4.29244 8.12839 4.56832 8.17442C4.8442 8.22045 5.09704 8.35664 5.28729 8.56166C5.47754 8.76669 5.59445 9.02899 5.61975 9.30754C5.64506 9.58609 5.57731 9.86517 5.42712 10.1011C5.27693 10.3371 5.05276 10.5166 4.78969 10.6116C5.43814 10.825 6.02237 11.1984 6.48844 11.6972C6.62358 11.5376 6.7962 11.4139 6.99083 11.3374C7.18546 11.2608 7.39604 11.2337 7.60372 11.2585C7.81139 11.2833 8.00968 11.3592 8.18084 11.4794C8.35199 11.5996 8.49067 11.7604 8.58446 11.9473C8.67824 12.1342 8.72421 12.3415 8.71825 12.5506C8.71229 12.7597 8.65457 12.964 8.55028 13.1453C8.44599 13.3266 8.29838 13.4792 8.12065 13.5894C7.94292 13.6997 7.74063 13.7642 7.53188 13.7771C7.56596 13.9671 7.5857 14.1593 7.59094 14.3522C7.9125 14.3876 8.20829 14.5448 8.41751 14.7915C8.62674 15.0383 8.7335 15.3558 8.71585 15.6788C8.6982 16.0018 8.5575 16.3058 8.32264 16.5283C8.08779 16.7508 7.77663 16.8749 7.45313 16.875C7.26355 16.8748 7.0765 16.8315 6.9061 16.7484C6.56299 17.2599 6.1093 17.6876 5.5786 18H15.1988C15.4194 17.9996 15.6309 17.9117 15.7869 17.7557C15.943 17.5997 16.0308 17.3882 16.0313 17.1675V10.8042C15.304 11.1029 14.5059 11.1846 13.7333 11.0393C12.9606 10.8941 12.2466 10.5282 11.6775 9.98579C11.5769 10.1873 11.4242 10.3583 11.2354 10.4811C11.0465 10.6039 10.8283 10.6741 10.6032 10.6842C10.3782 10.6944 10.1545 10.6443 9.95533 10.5391C9.75614 10.4339 9.58867 10.2774 9.47025 10.0857C9.35182 9.89408 9.28673 9.6743 9.28171 9.44908C9.27669 9.22386 9.33192 9.00139 9.44169 8.80467C9.55146 8.60795 9.71178 8.44412 9.90608 8.33013C10.1004 8.21613 10.3216 8.1561 10.5469 8.15625C10.5525 8.15625 10.5595 8.15766 10.5652 8.15766C10.511 7.97103 10.4706 7.78067 10.4442 7.58813C10.2682 7.57417 10.0971 7.52352 9.94182 7.43942C9.78657 7.35533 9.65064 7.23966 9.54279 7.09987C9.43494 6.96007 9.35756 6.79924 9.31562 6.62773C9.27368 6.45622 9.26811 6.27783 9.29928 6.10404C9.33045 5.93025 9.39766 5.76491 9.49659 5.61866C9.59551 5.47241 9.72396 5.3485 9.87367 5.25489C10.0234 5.16129 10.191 5.10006 10.3658 5.07516C10.5406 5.05026 10.7187 5.06224 10.8886 5.11031C11.1277 4.66425 11.4477 4.26654 11.8322 3.9375H2.53125V0.8325C2.53125 0.797043 2.53823 0.761934 2.5518 0.729176C2.56537 0.696418 2.58526 0.666653 2.61033 0.641581C2.6354 0.61651 2.66517 0.596622 2.69793 0.583053C2.73068 0.569484 2.76579 0.5625 2.80125 0.5625H15.1988C15.2704 0.5625 15.339 0.590947 15.3897 0.641581C15.4403 0.692216 15.4688 0.760892 15.4688 0.8325V3.07406C15.6605 3.12166 15.8485 3.18323 16.0313 3.25828ZM13.6406 11.25C13.8909 11.25 14.1356 11.3242 14.3438 11.4633C14.5519 11.6024 14.7141 11.8 14.8099 12.0313C14.9057 12.2626 14.9308 12.517 14.8819 12.7625C14.8331 13.008 14.7126 13.2336 14.5356 13.4106C14.3586 13.5876 14.133 13.7081 13.8875 13.7569C13.642 13.8058 13.3876 13.7807 13.1563 13.6849C12.925 13.5891 12.7274 13.4269 12.5883 13.2188C12.4492 13.0106 12.375 12.7659 12.375 12.5156C12.3755 12.1801 12.509 11.8585 12.7463 11.6213C12.9835 11.384 13.3051 11.2505 13.6406 11.25ZM13.6406 14.3438C13.8909 14.3438 14.1356 14.418 14.3438 14.5571C14.5519 14.6961 14.7141 14.8938 14.8099 15.125C14.9057 15.3563 14.9308 15.6108 14.8819 15.8563C14.8331 16.1018 14.7126 16.3273 14.5356 16.5043C14.3586 16.6813 14.133 16.8019 13.8875 16.8507C13.642 16.8995 13.3876 16.8745 13.1563 16.7787C12.925 16.6829 12.7274 16.5207 12.5883 16.3125C12.4492 16.1044 12.375 15.8597 12.375 15.6094C12.3755 15.2739 12.509 14.9523 12.7463 14.715C12.9835 14.4778 13.3051 14.3443 13.6406 14.3438ZM10.5469 11.25C10.7972 11.25 11.0419 11.3242 11.25 11.4633C11.4582 11.6024 11.6204 11.8 11.7162 12.0313C11.812 12.2626 11.837 12.517 11.7882 12.7625C11.7394 13.008 11.6188 13.2336 11.4418 13.4106C11.2648 13.5876 11.0393 13.7081 10.7938 13.7569C10.5483 13.8058 10.2938 13.7807 10.0625 13.6849C9.83128 13.5891 9.63362 13.4269 9.49455 13.2188C9.35548 13.0106 9.28125 12.7659 9.28125 12.5156C9.28177 12.1801 9.41528 11.8585 9.65252 11.6213C9.88976 11.384 10.2114 11.2505 10.5469 11.25ZM10.5469 14.3438C10.7972 14.3438 11.0419 14.418 11.25 14.5571C11.4582 14.6961 11.6204 14.8938 11.7162 15.125C11.812 15.3563 11.837 15.6108 11.7882 15.8563C11.7394 16.1018 11.6188 16.3273 11.4418 16.5043C11.2648 16.6813 11.0393 16.8019 10.7938 16.8507C10.5483 16.8995 10.2938 16.8745 10.0625 16.7787C9.83128 16.6829 9.63362 16.5207 9.49455 16.3125C9.35548 16.1044 9.28125 15.8597 9.28125 15.6094C9.28177 15.2739 9.41528 14.9523 9.65252 14.715C9.88976 14.4778 10.2114 14.3443 10.5469 14.3438ZM7.45313 5.0625C7.70345 5.0625 7.94814 5.13673 8.15627 5.2758C8.3644 5.41487 8.52662 5.61253 8.62241 5.84379C8.71821 6.07506 8.74327 6.32953 8.69444 6.57504C8.6456 6.82055 8.52506 7.04606 8.34806 7.22306C8.17106 7.40006 7.94555 7.5206 7.70004 7.56943C7.45453 7.61827 7.20006 7.59321 6.96879 7.49741C6.73753 7.40162 6.53987 7.2394 6.4008 7.03127C6.26173 6.82314 6.1875 6.57844 6.1875 6.32813C6.18802 5.99262 6.32153 5.67101 6.55877 5.43377C6.79601 5.19653 7.11762 5.06302 7.45313 5.0625ZM7.45313 8.15625C7.70345 8.15625 7.94814 8.23048 8.15627 8.36955C8.3644 8.50862 8.52662 8.70628 8.62241 8.93755C8.71821 9.16881 8.74327 9.42328 8.69444 9.66879C8.6456 9.9143 8.52506 10.1398 8.34806 10.3168C8.17106 10.4938 7.94555 10.6144 7.70004 10.6632C7.45453 10.712 7.20006 10.687 6.96879 10.5912C6.73753 10.4954 6.53987 10.3332 6.4008 10.125C6.26173 9.91689 6.1875 9.6722 6.1875 9.42188C6.18802 9.08637 6.32153 8.76476 6.55877 8.52752C6.79601 8.29028 7.11762 8.15677 7.45313 8.15625ZM4.35938 5.0625C4.60969 5.0625 4.85439 5.13673 5.06252 5.2758C5.27065 5.41487 5.43287 5.61253 5.52866 5.84379C5.62445 6.07506 5.64952 6.32953 5.60068 6.57504C5.55185 6.82055 5.43131 7.04606 5.25431 7.22306C5.07731 7.40006 4.8518 7.5206 4.60629 7.56943C4.36078 7.61827 4.10631 7.59321 3.87504 7.49741C3.64378 7.40162 3.44612 7.2394 3.30705 7.03127C3.16798 6.82314 3.09375 6.57844 3.09375 6.32813C3.09427 5.99262 3.22778 5.67101 3.46502 5.43377C3.70226 5.19653 4.02387 5.06302 4.35938 5.0625Z" fill="url(#paint2_linear_3784_9536)"/>
<defs>
<linearGradient id="paint0_linear_3784_9536" x1="0" y1="9.00004" x2="17.7217" y2="9.00004" gradientUnits="userSpaceOnUse">
<stop stop-color="#7E43DE"/>
<stop offset="1" stop-color="#4473E9"/>
</linearGradient>
<linearGradient id="paint1_linear_3784_9536" x1="0" y1="9.00004" x2="17.7217" y2="9.00004" gradientUnits="userSpaceOnUse">
<stop stop-color="#7E43DE"/>
<stop offset="1" stop-color="#4473E9"/>
</linearGradient>
<linearGradient id="paint2_linear_3784_9536" x1="0" y1="9.00004" x2="17.7217" y2="9.00004" gradientUnits="userSpaceOnUse">
<stop stop-color="#7E43DE"/>
<stop offset="1" stop-color="#4473E9"/>
</linearGradient>
</defs>
</svg>
