<svg width="18" height="16" viewBox="0 0 18 16" fill="none" xmlns="http://www.w3.org/2000/svg">
<path d="M15.6395 10.4339C15.6402 10.4314 15.6405 10.4288 15.6418 10.4263C16.6377 9.973 17.3327 8.97484 17.3327 7.81635C17.3327 6.69963 16.6872 5.73239 15.7488 5.25759C15.7516 5.20356 15.7436 5.14837 15.7231 5.09469C14.662 2.34642 11.9595 0.5 8.9988 0.5C6.03923 0.5 3.33728 2.34603 2.27569 5.0935C2.25481 5.14753 2.24741 5.20307 2.25023 5.25768C1.31186 5.73215 0.666016 6.69963 0.666016 7.81644C0.666016 9.39981 1.96134 10.6881 3.55403 10.6881C3.77639 10.6881 3.95697 10.5082 3.95697 10.2871V5.3459C3.95697 5.12442 3.77639 4.94495 3.55403 4.94495C3.43622 4.94495 3.32146 4.95393 3.20728 4.9677C4.2501 2.75806 6.52242 1.30204 8.99887 1.30204C11.4762 1.30204 13.7484 2.75821 14.7916 4.9677C14.6776 4.95405 14.5626 4.94495 14.4449 4.94495C14.2225 4.94495 14.042 5.12441 14.042 5.3459V10.2871C14.042 10.5082 14.2225 10.6881 14.4449 10.6881C14.5059 10.6881 14.5658 10.6826 14.6257 10.6788C13.7952 12.2085 12.3684 13.3403 10.6771 13.7963C10.48 13.5212 10.1583 13.3397 9.7936 13.3397H8.20608C7.60728 13.3397 7.1201 13.8244 7.1201 14.4196C7.1201 15.0154 7.60743 15.5 8.20608 15.5H9.7936C10.3382 15.5 10.7861 15.0978 10.8634 14.5763C13.0031 14.0075 14.7739 12.481 15.6396 10.4342L15.6395 10.4339Z" fill="url(#paint0_linear_3800_1842)"/>
<defs>
<linearGradient id="paint0_linear_3800_1842" x1="0.666016" y1="8" x2="17.0749" y2="8" gradientUnits="userSpaceOnUse">
<stop stop-color="#7E43DE"/>
<stop offset="1" stop-color="#4473E9"/>
</linearGradient>
</defs>
</svg>
