<svg width="18" height="18" viewBox="0 0 18 18" fill="none" xmlns="http://www.w3.org/2000/svg">
<path d="M9.08051 0.5C9.4172 0.5 9.74805 0.521194 10.0746 0.55886L9.74105 2.41623C9.52439 2.39503 9.30268 2.38353 9.08051 2.38353C8.85833 2.38353 8.63663 2.39504 8.41997 2.41623L8.08642 0.55886C8.41297 0.521194 8.74381 0.5 9.08051 0.5ZM7.6744 0.61772L8.01448 2.46201C6.96262 2.63052 5.99147 3.04717 5.16304 3.64575L4.09701 2.09577C5.1401 1.35031 6.3554 0.83483 7.6744 0.61772ZM10.4866 0.61772C11.8056 0.83483 13.0209 1.35031 14.064 2.09577L12.998 3.64575C12.1695 3.04717 11.1984 2.63052 10.1465 2.46201L10.4866 0.61772ZM3.75693 2.35083L4.83603 3.90081C4.49497 4.18078 4.1808 4.48844 3.90081 4.82949L2.35083 3.75693C2.76337 3.23598 3.23606 2.76347 3.75693 2.35083ZM14.4041 2.35083C14.925 2.76347 15.3976 3.23598 15.8102 3.75693L14.2602 4.82949C13.9802 4.48844 13.666 4.18078 13.325 3.90081L14.4041 2.35083ZM9.08051 2.80209C12.5505 2.80209 15.3589 5.61055 15.3589 9.08051C15.3589 12.5505 12.5505 15.3589 9.08051 15.3589C5.61055 15.3589 2.80209 12.5505 2.80209 9.08051C2.80209 5.61055 5.61055 2.80209 9.08051 2.80209ZM2.10231 4.09047L3.64575 5.16304C3.0488 5.9897 2.6375 6.95882 2.46855 8.00794L0.61772 7.66786C0.83582 6.34879 1.35579 5.13323 2.10231 4.09047ZM16.0587 4.09047C16.8052 5.13323 17.3252 6.34879 17.5433 7.66786L15.6925 8.00794C15.5235 6.95882 15.1122 5.9897 14.5153 5.16304L16.0587 4.09047ZM7.15773 5.96746C6.86176 6.26342 6.86343 6.56093 6.86343 6.8569C6.56746 6.8569 6.26995 6.85523 5.97399 7.1512C5.67803 7.44716 5.8219 7.8951 6.11787 8.19107C6.7098 8.783 7.89586 8.4878 8.63578 8.63579C8.48779 7.89586 8.78299 6.70981 8.19105 6.11788C7.82992 5.80011 7.50904 5.75573 7.15773 5.96746ZM9.96994 6.11788C9.37801 6.70981 9.6732 7.89586 9.52522 8.63579C10.2651 8.4878 11.4512 8.783 12.0431 8.19107C12.3391 7.8951 12.483 7.44717 12.187 7.1512C11.891 6.85524 11.5935 6.8569 11.2976 6.8569C11.2976 6.56093 11.2992 6.26342 11.0033 5.96746C10.6653 5.69103 10.2267 5.86716 9.96994 6.11788ZM0.55885 8.08642L2.41622 8.41997C2.39503 8.63663 2.38353 8.85834 2.38353 9.08051C2.38353 9.30268 2.39504 9.51786 2.41623 9.73451L0.55886 10.068C0.521679 9.74357 0.5 9.41498 0.5 9.08051C0.5 8.74382 0.521183 8.41297 0.55885 8.08642ZM17.6021 8.08642C17.6398 8.41297 17.661 8.74382 17.661 9.08051C17.661 9.41498 17.6393 9.74357 17.6021 10.068L15.7448 9.73451C15.766 9.51786 15.7775 9.30268 15.7775 9.08051C15.7775 8.85834 15.766 8.63663 15.7448 8.41997L17.6021 8.08642ZM8.63578 9.51868C7.89586 9.66666 6.7098 9.37147 6.11787 9.9634C5.8219 10.2594 5.67802 10.7073 5.97399 11.0033C6.26995 11.2992 6.56746 11.2976 6.86343 11.2976C6.86343 11.5935 6.86176 11.891 7.15773 12.187C7.4537 12.483 7.89509 12.3326 8.19105 12.0366C8.78299 11.4447 8.48779 10.2586 8.63578 9.51868ZM9.52522 9.51868C9.6732 10.2586 9.378 11.4447 9.96994 12.0366C10.2659 12.3326 10.7073 12.483 11.0033 12.187C11.2992 11.891 11.2976 11.5935 11.2976 11.2976C11.5935 11.2976 11.891 11.2997 12.187 11.0033C12.483 10.7073 12.3391 10.2594 12.0431 9.9634C11.4512 9.37147 10.2651 9.66666 9.52522 9.51868ZM2.46854 10.1465C2.63694 11.1976 3.04776 12.1637 3.64574 12.9914L2.10229 14.0705C1.35487 13.0265 0.835341 11.8075 0.61771 10.4866L2.46854 10.1465ZM15.6925 10.1465L17.5433 10.4866C17.3257 11.8075 16.8061 13.0265 16.0587 14.0705L14.5153 12.9914C15.1132 12.1637 15.5241 11.1976 15.6925 10.1465ZM3.90081 13.325C4.17887 13.6635 4.49116 13.9753 4.82949 14.2537L3.75693 15.8036C3.2347 15.3899 2.76414 14.9201 2.35083 14.3975L3.90081 13.325ZM14.2602 13.325L15.8102 14.3975C15.3969 14.9201 14.9263 15.3899 14.4041 15.8036L13.3315 14.2537C13.6699 13.9753 13.9821 13.6635 14.2602 13.325ZM5.16304 14.5087C5.99169 15.1073 6.96219 15.524 8.01448 15.6925L7.6744 17.5433C6.3529 17.3258 5.1349 16.8064 4.09047 16.0587L5.16304 14.5087ZM12.998 14.5087L14.0705 16.0587C13.0261 16.8064 11.8081 17.3258 10.4866 17.5433L10.1465 15.6925C11.1988 15.524 12.1693 15.1073 12.998 14.5087ZM8.41997 15.7382C8.63663 15.7594 8.85833 15.7775 9.08051 15.7775C9.30268 15.7775 9.52439 15.7595 9.74105 15.7382L10.0811 17.6022C9.75252 17.6403 9.41942 17.661 9.08051 17.661C8.7416 17.661 8.4085 17.6403 8.07989 17.6022L8.41997 15.7382Z" fill="url(#paint0_linear_3779_8943)"/>
<defs>
<linearGradient id="paint0_linear_3779_8943" x1="0.5" y1="9.08051" x2="17.3956" y2="9.08051" gradientUnits="userSpaceOnUse">
<stop stop-color="#7E43DE"/>
<stop offset="1" stop-color="#4473E9"/>
</linearGradient>
</defs>
</svg>
