<svg width="12" height="16" viewBox="0 0 12 16" fill="none" xmlns="http://www.w3.org/2000/svg">
<path fill-rule="evenodd" clip-rule="evenodd" d="M7.57227 5.31738L9.10592 6.84706C9.41219 7.15293 9.58445 7.56772 9.58445 8.00012V14.5219C9.58445 14.6168 9.57627 14.7094 9.56091 14.7997L10.8458 14.456C11.3688 14.3165 11.6793 13.78 11.5391 13.258L9.84692 6.95859C9.77991 6.70782 9.6155 6.49424 9.39029 6.36446L7.57227 5.31738Z" fill="url(#paint0_linear_3800_1827)"/>
<path fill-rule="evenodd" clip-rule="evenodd" d="M2.56182 5.4696L0.718954 7.30842C0.534929 7.49168 0.431641 7.74049 0.431641 8.00006V14.5218C0.431641 15.0622 0.87062 15.5001 1.41223 15.5001H7.94953C8.49114 15.5001 8.93012 15.0622 8.93012 14.5218V8.00006C8.93012 7.74049 8.82684 7.49168 8.64281 7.30842L6.79995 5.4696C7.3092 4.94199 7.62267 4.22459 7.62267 3.4348C7.62267 1.81512 6.30442 0.5 4.68088 0.5C3.05735 0.5 1.7391 1.81512 1.7391 3.4348C1.7391 4.22459 2.05256 4.94199 2.56182 5.4696ZM6.33776 5.00851C6.72869 4.59894 6.96894 4.04459 6.96894 3.4348C6.96894 2.17512 5.94356 1.15218 4.68088 1.15218C3.4182 1.15218 2.39283 2.17512 2.39283 3.4348C2.39283 4.04655 2.63438 4.60221 3.0276 5.0121C3.44403 5.44645 4.03108 5.71743 4.68088 5.71743C4.86131 5.71743 5.00775 5.57134 5.00775 5.39134C5.00775 5.21134 4.86131 5.06525 4.68088 5.06525C4.20987 5.06525 3.78494 4.86601 3.48652 4.5471L3.9876 4.04753C4.37036 3.66535 4.9914 3.66535 5.37416 4.04753L6.33776 5.00851Z" fill="url(#paint1_linear_3800_1827)"/>
<defs>
<linearGradient id="paint0_linear_3800_1827" x1="7.57227" y1="10.0586" x2="11.5109" y2="10.0586" gradientUnits="userSpaceOnUse">
<stop stop-color="#7E43DE"/>
<stop offset="1" stop-color="#4473E9"/>
</linearGradient>
<linearGradient id="paint1_linear_3800_1827" x1="0.431641" y1="8.00006" x2="8.7987" y2="8.00006" gradientUnits="userSpaceOnUse">
<stop stop-color="#7E43DE"/>
<stop offset="1" stop-color="#4473E9"/>
</linearGradient>
</defs>
</svg>
