<svg width="19" height="18" viewBox="0 0 19 18" fill="none" xmlns="http://www.w3.org/2000/svg">
<path d="M18.1009 17.4264L16.1868 13.7596L15.4364 14.5678L13.4368 12.711C14.3841 10.701 14.4329 7.88505 12.0968 6.38343C10.9025 5.6574 9.46121 6.02268 9.46121 6.02268C9.37049 6.05199 9.28795 6.07009 9.20908 6.08345C9.20692 5.99402 9.20434 5.90566 9.19744 5.82248C9.6959 5.81515 12.0104 5.63413 12.18 2.9063C12.18 2.9063 9.61982 2.64102 9.15003 5.45936C8.91578 4.13121 8.08911 3.75559 8.04838 3.73792C7.93567 3.68922 7.80572 3.74137 7.75573 3.85365C7.70595 3.96614 7.75724 4.09803 7.8693 4.14889C7.88244 4.15492 8.29599 4.54304 8.44297 4.82901C8.538 5.01391 8.67161 5.41087 8.72226 5.61258C8.75824 5.75567 8.75717 5.91988 8.76126 6.09401C8.6033 6.06966 8.51796 6.02268 8.51796 6.02268C8.51796 6.02268 7.46221 5.78972 6.38341 6.16211L3.17199 3.17999L3.41487 2.11713L3.17932 1.89861L3.12545 1.84861L2.79702 1.54368L3.04162 1.77082L1.97833 0.783601L1.67296 0.5L1.3204 1.81693L0.0332031 2.26604L1.77511 3.88339L2.81706 3.56229L5.86513 6.39248C5.21948 6.75172 4.62707 7.38638 4.32213 8.4863C3.43663 11.6816 5.16841 15.0109 7.40123 15.0109C7.40123 15.0109 7.70983 14.8031 8.51839 14.4365C8.51839 14.4365 9.01017 14.2659 9.46143 14.4365C10.2698 14.8031 10.5786 15.0109 10.5786 15.0109C11.5098 15.149 12.502 14.3637 13.1862 13.1899L15.0819 14.9501L14.2906 15.8022L18.1009 17.4264Z" fill="url(#paint0_linear_3784_9404)"/>
<defs>
<linearGradient id="paint0_linear_3784_9404" x1="0.0332031" y1="8.96321" x2="17.8215" y2="8.96321" gradientUnits="userSpaceOnUse">
<stop stop-color="#7E43DE"/>
<stop offset="1" stop-color="#4473E9"/>
</linearGradient>
</defs>
</svg>
