<svg width="14" height="18" viewBox="0 0 14 18" fill="none" xmlns="http://www.w3.org/2000/svg">
<path d="M12.7561 16.9258H11.7955L10.1275 14.7524C12.2251 13.6153 13.6656 11.3914 13.6656 8.83943C13.6656 5.78192 11.568 3.12857 8.68766 2.37008V1.56124C8.68766 0.979943 8.20772 0.5 7.62643 0.5H6.33764C5.75635 0.5 5.27641 0.979943 5.27641 1.56124V2.34458C2.39537 3.05207 0.222656 5.73099 0.222656 8.83885C0.222656 11.391 1.66314 13.6402 3.78554 14.7518L2.11751 16.9252H1.13213C0.980425 16.9252 0.87973 17.0266 0.87973 17.1776C0.87973 17.3293 0.981087 17.43 1.13213 17.43H12.7815C12.9332 17.43 13.0339 17.3286 13.0339 17.1776C13.0346 17.0266 12.8829 16.9258 12.7561 16.9258ZM5.75642 1.56106C5.75642 1.25767 6.00882 1.00527 6.31221 1.00527H7.601C7.90439 1.00527 8.15679 1.25767 8.15679 1.56106V2.24305C8.00509 2.21755 7.85339 2.19271 7.70169 2.1672V2.04101C7.70169 1.63692 7.37345 1.28317 6.94385 1.28317C6.51426 1.28317 6.18602 1.63692 6.18602 2.04101V2.1672C6.03431 2.19271 5.88262 2.19271 5.73092 2.21755L5.73159 1.56107L5.75642 1.56106ZM2.34509 10.4564L5.30191 9.59724C5.35225 9.72343 5.4281 9.84963 5.52946 9.95098L3.40692 12.1747C2.9263 11.6693 2.57264 11.0881 2.34509 10.4564ZM8.13191 8.76355C8.18225 9.52139 7.57611 10.1027 6.86862 10.1027C6.16113 10.1027 5.60534 9.42069 5.63019 8.8139C5.6557 8.2581 6.08528 7.65131 6.81762 7.60096C7.44993 7.52511 8.10641 8.05606 8.13191 8.76355ZM3.22989 5.6806L5.45364 7.82858C5.37779 7.95477 5.30194 8.05613 5.25159 8.20782L2.26935 7.44931C2.4714 6.79217 2.80029 6.18605 3.22989 5.6806ZM6.76734 10.6082H6.89354C6.99489 10.6082 7.07073 10.6082 7.17143 10.5827C8.05612 13.5899 8.00512 13.4885 8.03062 13.5645C7.37348 13.7162 6.69149 13.7416 6.00878 13.6148C6.51489 11.5936 5.95849 13.8429 6.76734 10.6082ZM10.5833 11.9984L8.33399 9.85039C8.40984 9.74903 8.46018 9.62284 8.53604 9.49664L11.5686 10.2296C11.3666 10.8861 11.0378 11.4929 10.5833 11.9984ZM8.48572 8.13201C8.43538 8.00581 8.35953 7.87961 8.28367 7.77826L10.4571 5.50416C10.9122 6.0096 11.2908 6.5909 11.4935 7.22254L8.48572 8.13201ZM7.09626 7.09562H6.76801L5.88332 4.08846C6.11087 4.03811 6.36327 3.9871 6.59081 3.9871C6.64116 4.21465 6.69217 4.39119 6.71701 4.49254C6.74252 4.61874 6.8432 4.69459 6.9694 4.69459C7.0956 4.69459 7.19695 4.61874 7.2218 4.49254C7.24731 4.39119 7.29765 4.21465 7.34799 3.9871C7.52519 4.01261 7.70174 4.01261 7.87894 4.06295L7.09626 7.09562ZM0.702685 8.83943C0.702685 5.63019 3.22991 2.92649 6.28742 2.67337C6.33776 2.92577 6.41361 3.22916 6.46462 3.50706C3.48288 3.78496 1.48664 6.28671 1.53699 8.99041C1.61284 11.8714 3.96283 14.2213 6.89421 14.2213C9.95172 14.2213 12.2265 11.6941 12.2514 8.88902C12.2514 6.18533 10.1792 3.73389 7.4245 3.5318C7.50035 3.25391 7.5507 2.97601 7.6017 2.72296C10.6089 3.02636 13.1107 5.67978 13.1107 8.88902C13.1107 12.3258 10.3056 15.1054 6.89424 15.1054C3.50784 15.0558 0.702685 12.2762 0.702685 8.83943Z" fill="url(#paint0_linear_3776_8881)"/>
<defs>
<linearGradient id="paint0_linear_3776_8881" x1="0.222656" y1="8.96499" x2="13.4578" y2="8.96499" gradientUnits="userSpaceOnUse">
<stop stop-color="#7E43DE"/>
<stop offset="1" stop-color="#4473E9"/>
</linearGradient>
</defs>
</svg>
