<svg width="16" height="18" viewBox="0 0 16 18" fill="none" xmlns="http://www.w3.org/2000/svg">
<path fill-rule="evenodd" clip-rule="evenodd" d="M5.21493 6.39393V9.17393H1.49848V6.39393H5.21493ZM5.21493 9.89264V12.6726H1.49848V9.89264H5.21493ZM5.21493 13.391V16.1481H1.49848V13.391H5.21493ZM5.93364 9.89264H9.8501V12.6726H5.93364V9.89264ZM9.8501 6.39393V9.17393H5.93364V6.39393H9.8501ZM5.93364 13.391H9.8501V16.1481H5.93364V13.391ZM10.5688 13.391H14.3269V16.1481H10.5688V13.391ZM10.5688 9.89264H14.3269V12.6726H10.5688V9.89264ZM10.5688 6.39393H14.3269V9.17393H10.5688V6.39393ZM15.2433 0.935547H0.582031V17.0646H15.243L15.2433 0.935547ZM4.29622 7.56522L3.64332 7.42619L3.30719 6.85748L2.97106 7.42587L2.31848 7.5649L2.76332 8.05587L2.69622 8.71039L3.30719 8.44522L3.91816 8.71039L3.85139 8.05587L4.29622 7.56522ZM6.903 7.56522L7.34784 8.05619L7.28074 8.71071L7.89171 8.44555L8.50268 8.71071L8.43558 8.05619L8.88042 7.56522L8.22751 7.42619L7.89139 6.85748L7.55493 7.42619L6.903 7.56522ZM11.5085 7.56522L11.9533 8.05619L11.8862 8.71071L12.4972 8.44555L13.1082 8.71071L13.0414 8.05619L13.4859 7.56522L12.8336 7.42619L12.4972 6.85748L12.1607 7.42619L11.5085 7.56522ZM12.1607 10.9246L11.5085 11.0636L11.9533 11.5549L11.8862 12.2094L12.4972 11.9443L13.1082 12.2094L13.0414 11.5549L13.4859 11.0636L12.8336 10.9246L12.4972 10.3555L12.1607 10.9246ZM8.4359 11.5546L8.88074 11.0633L8.22784 10.9243L7.89171 10.3552L7.55526 10.9243L6.90268 11.0633L7.34751 11.5546L7.28042 12.2091L7.89139 11.9439L8.50235 12.2091L8.4359 11.5546ZM3.85139 11.5546L4.29622 11.0633L3.64332 10.9243L3.30719 10.3552L2.97074 10.9243L2.31816 11.0633L2.763 11.5546L2.6959 12.2091L3.30687 11.9439L3.91784 12.2091L3.85139 11.5546ZM4.29622 14.5623L3.64332 14.4233L3.30719 13.8546L2.97074 14.4233L2.31816 14.5623L2.763 15.0533L2.6959 15.7078L3.30687 15.4426L3.91784 15.7078L3.85106 15.0533L4.29622 14.5623ZM6.903 14.5623L7.34784 15.0533L7.28074 15.7078L7.89171 15.4426L8.50268 15.7078L8.43558 15.0533L8.88042 14.5623L8.22751 14.4233L7.89139 13.8546L7.55493 14.4233L6.903 14.5623ZM11.5085 14.5623L11.9533 15.0533L11.8862 15.7078L12.4972 15.4426L13.1082 15.7078L13.0414 15.0533L13.4859 14.5623L12.8336 14.4233L12.4972 13.8546L12.1607 14.4233L11.5085 14.5623ZM14.3269 4.96297C10.0514 4.9591 5.77364 4.95845 1.49816 4.96297L3.59364 4.192C2.99268 4.17619 2.38881 4.15393 1.78848 4.13942C2.54042 3.88297 3.28719 3.7378 4.07268 3.61103C3.58106 3.48555 2.85042 3.40297 2.37913 3.21329C2.963 3.19006 3.63042 3.10587 4.21397 3.10458C3.64687 2.96297 2.30913 2.67393 1.81074 2.36651C5.71719 2.36716 10.1072 2.36684 14.0133 2.36651C13.5149 2.67361 12.1775 2.96264 11.6101 3.10458C12.1936 3.10587 12.8611 3.19006 13.4449 3.21329C12.974 3.40297 12.2433 3.48587 11.7514 3.61103C12.5369 3.7378 13.2836 3.88297 14.0356 4.13942C13.4353 4.15393 12.8317 4.17587 12.2304 4.192L14.3269 4.96297Z" fill="url(#paint0_linear_3784_9271)"/>
<defs>
<linearGradient id="paint0_linear_3784_9271" x1="0.582031" y1="9.00006" x2="15.0166" y2="9.00006" gradientUnits="userSpaceOnUse">
<stop stop-color="#7E43DE"/>
<stop offset="1" stop-color="#4473E9"/>
</linearGradient>
</defs>
</svg>
