<svg width="16" height="16" viewBox="0 0 16 16" fill="none" xmlns="http://www.w3.org/2000/svg">
<path d="M8.75524 7.48386H3.03186L3.40972 8.48386H7.11048L8.75524 7.48386Z" fill="url(#paint0_linear_3784_9391)"/>
<path d="M2.8776 8.86207H1.66736V13.525H2.8776V8.86207Z" fill="url(#paint1_linear_3784_9391)"/>
<path d="M2.8776 14.0767H1.66736V14.5484H2.8776V14.0767Z" fill="url(#paint2_linear_3784_9391)"/>
<path d="M7.27782 4.51778L7.99999 5.31416L8.72216 4.51778H7.27782Z" fill="url(#paint3_linear_3784_9391)"/>
<path d="M8.72244 6.93213L7.99999 6.13544L7.27755 6.93213H8.72244Z" fill="url(#paint4_linear_3784_9391)"/>
<path d="M6.37931 1.55172H4.24138V3.96607H6.37931V1.55172Z" fill="url(#paint5_linear_3784_9391)"/>
<path d="M9.06897 4.95666L8.37238 5.72483L9.06897 6.49297V4.95666Z" fill="url(#paint6_linear_3784_9391)"/>
<path d="M6.37931 4.51778H4.24138V6.93213H6.37931V4.51778Z" fill="url(#paint7_linear_3784_9391)"/>
<path d="M1.89837 3.96607H3.34306L2.62072 3.16948L1.89837 3.96607Z" fill="url(#paint8_linear_3784_9391)"/>
<path d="M3.68965 1.99074L2.99306 2.75888L3.68965 3.52702V1.99074Z" fill="url(#paint9_linear_3784_9391)"/>
<path d="M2.62071 2.34821L3.34299 1.55172H1.89844L2.62071 2.34821Z" fill="url(#paint10_linear_3784_9391)"/>
<path d="M1.55172 6.93212H1.72166L2.01448 6.15719C2.05503 6.04985 2.15779 5.97885 2.27252 5.97885C2.38724 5.97885 2.49003 6.04988 2.53055 6.15719L2.82334 6.93212H3.68966V4.51778H1.55172V6.93212Z" fill="url(#paint11_linear_3784_9391)"/>
<path d="M1.79068 8.31033H2.75433L2.27251 7.03516L1.79068 8.31033Z" fill="url(#paint12_linear_3784_9391)"/>
<path d="M1.66736 15.3949C1.66736 15.7286 1.93881 16 2.2725 16C2.60616 16 2.8776 15.7286 2.8776 15.3949V15.1001H1.66736V15.3949Z" fill="url(#paint13_linear_3784_9391)"/>
<path d="M1.55172 3.52702L2.24831 2.75888L1.55172 1.99074V3.52702Z" fill="url(#paint14_linear_3784_9391)"/>
<path d="M12.657 3.96607H14.1017L13.3793 3.16948L12.657 3.96607Z" fill="url(#paint15_linear_3784_9391)"/>
<path d="M11.7586 1.55172H9.62069V3.96607H11.7586V1.55172Z" fill="url(#paint16_linear_3784_9391)"/>
<path d="M9.62069 6.93212H9.66265L10.6965 6.30354C10.8268 6.2244 10.9964 6.26578 11.0756 6.39592L11.4016 6.93212H11.7586V4.51778H9.62069V6.93212Z" fill="url(#paint17_linear_3784_9391)"/>
<path d="M12.1312 8.13221L13.1975 7.48387H11.737L12.1312 8.13221Z" fill="url(#paint18_linear_3784_9391)"/>
<path d="M7.66952 11.4907C7.19761 11.7776 7.04766 12.3927 7.33458 12.8646L8.05692 14.0527C8.34384 14.5246 8.95899 14.6745 9.4309 14.3876L14.9369 11.04C15.4088 10.753 15.5587 10.1379 15.2718 9.66599L14.5495 8.47792C14.2626 8.00601 13.6474 7.85605 13.1755 8.14297L7.66952 11.4907ZM8.55599 12.493C8.5112 12.5202 8.46178 12.5332 8.41296 12.5332C8.31978 12.5332 8.22889 12.486 8.17696 12.4006C8.09782 12.2704 8.13916 12.1007 8.26937 12.0216L13.3708 8.91986C13.501 8.84076 13.6707 8.88214 13.7499 9.01228C13.829 9.14245 13.7876 9.31214 13.6574 9.39131L8.55599 12.493ZM14.4294 10.13C14.5086 10.2602 14.4672 10.4299 14.337 10.509L9.23558 13.6107C9.19082 13.6379 9.14137 13.6509 9.09254 13.6509C8.99937 13.6509 8.90847 13.6037 8.85654 13.5183C8.7774 13.3881 8.81875 13.2185 8.94896 13.1393L14.0504 10.0376C14.1807 9.95848 14.3503 9.99986 14.4294 10.13Z" fill="url(#paint19_linear_3784_9391)"/>
<path d="M14.4483 4.51778H12.3103V6.93213H14.4483V4.51778Z" fill="url(#paint20_linear_3784_9391)"/>
<path d="M1 0C0.447715 0 0 0.447715 0 1V7.81254C0 8.1833 0.300563 8.48386 0.671326 8.48386H0.789737C0.997701 8.48386 1.18395 8.35514 1.25746 8.1606L1.42929 7.70585C1.46983 7.59857 1.39055 7.48386 1.27586 7.48386C1.12352 7.48386 1 7.36034 1 7.208V1.27586C1 1.12352 1.12352 1 1.27586 1H14.7241C14.8765 1 15 1.12352 15 1.27586V7.208C15 7.36034 14.8765 7.48386 14.7241 7.48386C14.6657 7.48386 14.6297 7.54781 14.6601 7.59777L15.0528 8.24362C15.1435 8.3928 15.308 8.48386 15.4825 8.48386C15.7658 8.48386 16 8.25427 16 7.97105V1C16 0.447715 15.5523 0 15 0H1Z" fill="url(#paint21_linear_3784_9391)"/>
<path d="M9.06897 1.55172H6.93103V3.96607H9.06897V1.55172Z" fill="url(#paint22_linear_3784_9391)"/>
<path d="M6.16801 11.8524C6.18536 11.7813 6.23022 11.7201 6.2927 11.6821L10.9095 8.87503C11.3239 8.62309 11.4556 8.08295 11.2036 7.66858C10.9517 7.25421 10.4116 7.12254 9.99719 7.37447L4.38699 10.7855C3.91509 11.0724 3.76512 11.6876 4.05204 12.1595L4.80382 13.3959C5.07449 13.8411 5.65479 13.9826 6.09996 13.7119C6.54513 13.4412 6.6866 12.8609 6.41593 12.4158L6.20029 12.0611C6.16232 11.9985 6.1507 11.9235 6.16801 11.8524Z" fill="url(#paint23_linear_3784_9391)"/>
<path d="M6.93103 6.49297L7.62762 5.72483L6.93103 4.95666V6.49297Z" fill="url(#paint24_linear_3784_9391)"/>
<path d="M13.3793 2.34821L14.1016 1.55172H12.6571L13.3793 2.34821Z" fill="url(#paint25_linear_3784_9391)"/>
<path d="M14.4483 1.99074L13.7517 2.75888L14.4483 3.52702V1.99074Z" fill="url(#paint26_linear_3784_9391)"/>
<path d="M12.3103 3.52702L13.0069 2.75888L12.3103 1.99074V3.52702Z" fill="url(#paint27_linear_3784_9391)"/>
<defs>
<linearGradient id="paint0_linear_3784_9391" x1="0" y1="8.00001" x2="15.7526" y2="8.00001" gradientUnits="userSpaceOnUse">
<stop stop-color="#7E43DE"/>
<stop offset="1" stop-color="#4473E9"/>
</linearGradient>
<linearGradient id="paint1_linear_3784_9391" x1="0" y1="8.00001" x2="15.7526" y2="8.00001" gradientUnits="userSpaceOnUse">
<stop stop-color="#7E43DE"/>
<stop offset="1" stop-color="#4473E9"/>
</linearGradient>
<linearGradient id="paint2_linear_3784_9391" x1="0" y1="8.00001" x2="15.7526" y2="8.00001" gradientUnits="userSpaceOnUse">
<stop stop-color="#7E43DE"/>
<stop offset="1" stop-color="#4473E9"/>
</linearGradient>
<linearGradient id="paint3_linear_3784_9391" x1="0" y1="8.00001" x2="15.7526" y2="8.00001" gradientUnits="userSpaceOnUse">
<stop stop-color="#7E43DE"/>
<stop offset="1" stop-color="#4473E9"/>
</linearGradient>
<linearGradient id="paint4_linear_3784_9391" x1="0" y1="8.00001" x2="15.7526" y2="8.00001" gradientUnits="userSpaceOnUse">
<stop stop-color="#7E43DE"/>
<stop offset="1" stop-color="#4473E9"/>
</linearGradient>
<linearGradient id="paint5_linear_3784_9391" x1="0" y1="8.00001" x2="15.7526" y2="8.00001" gradientUnits="userSpaceOnUse">
<stop stop-color="#7E43DE"/>
<stop offset="1" stop-color="#4473E9"/>
</linearGradient>
<linearGradient id="paint6_linear_3784_9391" x1="0" y1="8.00001" x2="15.7526" y2="8.00001" gradientUnits="userSpaceOnUse">
<stop stop-color="#7E43DE"/>
<stop offset="1" stop-color="#4473E9"/>
</linearGradient>
<linearGradient id="paint7_linear_3784_9391" x1="0" y1="8.00001" x2="15.7526" y2="8.00001" gradientUnits="userSpaceOnUse">
<stop stop-color="#7E43DE"/>
<stop offset="1" stop-color="#4473E9"/>
</linearGradient>
<linearGradient id="paint8_linear_3784_9391" x1="0" y1="8.00001" x2="15.7526" y2="8.00001" gradientUnits="userSpaceOnUse">
<stop stop-color="#7E43DE"/>
<stop offset="1" stop-color="#4473E9"/>
</linearGradient>
<linearGradient id="paint9_linear_3784_9391" x1="0" y1="8.00001" x2="15.7526" y2="8.00001" gradientUnits="userSpaceOnUse">
<stop stop-color="#7E43DE"/>
<stop offset="1" stop-color="#4473E9"/>
</linearGradient>
<linearGradient id="paint10_linear_3784_9391" x1="0" y1="8.00001" x2="15.7526" y2="8.00001" gradientUnits="userSpaceOnUse">
<stop stop-color="#7E43DE"/>
<stop offset="1" stop-color="#4473E9"/>
</linearGradient>
<linearGradient id="paint11_linear_3784_9391" x1="0" y1="8.00001" x2="15.7526" y2="8.00001" gradientUnits="userSpaceOnUse">
<stop stop-color="#7E43DE"/>
<stop offset="1" stop-color="#4473E9"/>
</linearGradient>
<linearGradient id="paint12_linear_3784_9391" x1="0" y1="8.00001" x2="15.7526" y2="8.00001" gradientUnits="userSpaceOnUse">
<stop stop-color="#7E43DE"/>
<stop offset="1" stop-color="#4473E9"/>
</linearGradient>
<linearGradient id="paint13_linear_3784_9391" x1="0" y1="8.00001" x2="15.7526" y2="8.00001" gradientUnits="userSpaceOnUse">
<stop stop-color="#7E43DE"/>
<stop offset="1" stop-color="#4473E9"/>
</linearGradient>
<linearGradient id="paint14_linear_3784_9391" x1="0" y1="8.00001" x2="15.7526" y2="8.00001" gradientUnits="userSpaceOnUse">
<stop stop-color="#7E43DE"/>
<stop offset="1" stop-color="#4473E9"/>
</linearGradient>
<linearGradient id="paint15_linear_3784_9391" x1="0" y1="8.00001" x2="15.7526" y2="8.00001" gradientUnits="userSpaceOnUse">
<stop stop-color="#7E43DE"/>
<stop offset="1" stop-color="#4473E9"/>
</linearGradient>
<linearGradient id="paint16_linear_3784_9391" x1="0" y1="8.00001" x2="15.7526" y2="8.00001" gradientUnits="userSpaceOnUse">
<stop stop-color="#7E43DE"/>
<stop offset="1" stop-color="#4473E9"/>
</linearGradient>
<linearGradient id="paint17_linear_3784_9391" x1="0" y1="8.00001" x2="15.7526" y2="8.00001" gradientUnits="userSpaceOnUse">
<stop stop-color="#7E43DE"/>
<stop offset="1" stop-color="#4473E9"/>
</linearGradient>
<linearGradient id="paint18_linear_3784_9391" x1="0" y1="8.00001" x2="15.7526" y2="8.00001" gradientUnits="userSpaceOnUse">
<stop stop-color="#7E43DE"/>
<stop offset="1" stop-color="#4473E9"/>
</linearGradient>
<linearGradient id="paint19_linear_3784_9391" x1="0" y1="8.00001" x2="15.7526" y2="8.00001" gradientUnits="userSpaceOnUse">
<stop stop-color="#7E43DE"/>
<stop offset="1" stop-color="#4473E9"/>
</linearGradient>
<linearGradient id="paint20_linear_3784_9391" x1="0" y1="8.00001" x2="15.7526" y2="8.00001" gradientUnits="userSpaceOnUse">
<stop stop-color="#7E43DE"/>
<stop offset="1" stop-color="#4473E9"/>
</linearGradient>
<linearGradient id="paint21_linear_3784_9391" x1="0" y1="8.00001" x2="15.7526" y2="8.00001" gradientUnits="userSpaceOnUse">
<stop stop-color="#7E43DE"/>
<stop offset="1" stop-color="#4473E9"/>
</linearGradient>
<linearGradient id="paint22_linear_3784_9391" x1="0" y1="8.00001" x2="15.7526" y2="8.00001" gradientUnits="userSpaceOnUse">
<stop stop-color="#7E43DE"/>
<stop offset="1" stop-color="#4473E9"/>
</linearGradient>
<linearGradient id="paint23_linear_3784_9391" x1="0" y1="8.00001" x2="15.7526" y2="8.00001" gradientUnits="userSpaceOnUse">
<stop stop-color="#7E43DE"/>
<stop offset="1" stop-color="#4473E9"/>
</linearGradient>
<linearGradient id="paint24_linear_3784_9391" x1="0" y1="8.00001" x2="15.7526" y2="8.00001" gradientUnits="userSpaceOnUse">
<stop stop-color="#7E43DE"/>
<stop offset="1" stop-color="#4473E9"/>
</linearGradient>
<linearGradient id="paint25_linear_3784_9391" x1="0" y1="8.00001" x2="15.7526" y2="8.00001" gradientUnits="userSpaceOnUse">
<stop stop-color="#7E43DE"/>
<stop offset="1" stop-color="#4473E9"/>
</linearGradient>
<linearGradient id="paint26_linear_3784_9391" x1="0" y1="8.00001" x2="15.7526" y2="8.00001" gradientUnits="userSpaceOnUse">
<stop stop-color="#7E43DE"/>
<stop offset="1" stop-color="#4473E9"/>
</linearGradient>
<linearGradient id="paint27_linear_3784_9391" x1="0" y1="8.00001" x2="15.7526" y2="8.00001" gradientUnits="userSpaceOnUse">
<stop stop-color="#7E43DE"/>
<stop offset="1" stop-color="#4473E9"/>
</linearGradient>
</defs>
</svg>
