<svg width="18" height="13" viewBox="0 0 18 13" fill="none" xmlns="http://www.w3.org/2000/svg">
<path d="M8.02866 0.166992C6.80432 0.166992 5.74694 0.931292 5.15332 2.09007H10.9226C10.3289 0.931292 9.253 0.166992 8.02866 0.166992Z" fill="url(#paint0_linear_3539_15082)"/>
<path d="M12.8461 3.35247C12.8461 2.65317 12.3191 2.08984 11.665 2.08984H2.48872C1.83457 2.08984 1.30762 2.65317 1.30762 3.35247V4.01292H12.8461V3.35247Z" fill="url(#paint1_linear_3539_15082)"/>
<path d="M1.30762 11.4046C1.30762 12.1039 1.83457 12.6672 2.48872 12.6672H11.665C12.3191 12.6672 12.8461 12.1039 12.8461 11.4046V10.7441H1.30762V11.4046Z" fill="url(#paint2_linear_3539_15082)"/>
<path d="M17.6532 2.35445C17.6532 1.67359 17.0721 1.12891 16.3458 1.12891C15.6194 1.12891 15.0383 1.67359 15.0383 2.35445C15.0383 2.89914 15.4119 3.34656 15.9307 3.52164V6.45905C15.9307 6.78976 15.6402 7.0621 15.2874 7.0621H14.7686V7.85968H15.2874C16.0967 7.85968 16.7608 7.23718 16.7608 6.47851V3.52164C17.2796 3.34656 17.6532 2.89914 17.6532 2.35445Z" fill="url(#paint3_linear_3539_15082)"/>
<path d="M13.4465 4.97461H9.96191V9.7823H13.4465C13.6437 9.7823 13.8081 9.60555 13.8081 9.39345V5.36347C13.8081 5.15136 13.6437 4.97461 13.4465 4.97461ZM13.0191 7.14868L12.5918 7.64359C12.5753 7.66126 12.5589 7.69661 12.5589 7.73196L12.6411 8.40363C12.6411 8.492 12.5753 8.54503 12.4931 8.50968L11.9179 8.22687C11.885 8.2092 11.8521 8.2092 11.8357 8.22687L11.2604 8.50968C11.1947 8.54503 11.1125 8.492 11.1125 8.40363L11.1947 7.73196C11.1947 7.69661 11.1947 7.67894 11.1618 7.64359L10.7344 7.14868C10.6851 7.09565 10.718 6.9896 10.7837 6.97192L11.3919 6.8482C11.4248 6.8482 11.4412 6.83052 11.4576 6.79517L11.7699 6.21188C11.8028 6.14118 11.9014 6.14118 11.9343 6.21188L12.2466 6.79517C12.263 6.83052 12.2959 6.8482 12.3123 6.8482L12.9205 6.97192C13.0356 6.9896 13.0684 7.07797 13.0191 7.14868Z" fill="url(#paint4_linear_3539_15082)"/>
<path d="M8.99947 9.7823V4.97461H5.15332V9.7823H8.99947ZM6.00802 6.97192L6.61617 6.8482C6.64905 6.8482 6.66548 6.83052 6.68192 6.79517L6.99421 6.21188C7.02709 6.14118 7.12571 6.14118 7.15858 6.21188L7.47087 6.79517C7.48731 6.83052 7.52018 6.8482 7.53662 6.8482L8.14477 6.97192C8.22696 6.9896 8.25983 7.09565 8.19408 7.14868L7.76673 7.64359C7.76673 7.66126 7.76673 7.69661 7.76673 7.73196L7.84892 8.40363C7.84892 8.492 7.78317 8.54503 7.70099 8.50968L7.12571 8.22687C7.09283 8.2092 7.05996 8.2092 7.04352 8.22687L6.46824 8.50968C6.4025 8.54503 6.32032 8.492 6.32032 8.40363L6.4025 7.73196C6.4025 7.69661 6.4025 7.67894 6.36963 7.64359L5.94228 7.14868C5.89297 7.07797 5.92584 6.9896 6.00802 6.97192Z" fill="url(#paint5_linear_3539_15082)"/>
<path d="M4.19186 4.97461H0.707307C0.510069 4.97461 0.345703 5.15136 0.345703 5.36347V9.39345C0.345703 9.60555 0.510069 9.7823 0.707307 9.7823H4.19186V4.97461ZM3.4029 7.14868L2.97555 7.64359C2.95912 7.66126 2.95912 7.69661 2.95912 7.73196L3.0413 8.40363C3.0413 8.492 2.97555 8.54503 2.89337 8.50968L2.31809 8.22687C2.28522 8.2092 2.25234 8.2092 2.23591 8.22687L1.66063 8.50968C1.59488 8.54503 1.5127 8.492 1.5127 8.40363L1.59488 7.73196C1.59488 7.69661 1.59488 7.67894 1.56201 7.64359L1.13466 7.14868C1.08535 7.09565 1.11822 6.9896 1.18397 6.97192L1.79212 6.8482C1.82499 6.8482 1.84143 6.83052 1.85787 6.79517L2.17016 6.21188C2.20303 6.14118 2.30165 6.14118 2.33453 6.21188L2.64682 6.79517C2.66326 6.83052 2.69613 6.8482 2.71257 6.8482L3.32072 6.97192C3.41934 6.9896 3.45221 7.07797 3.4029 7.14868Z" fill="url(#paint6_linear_3539_15082)"/>
<defs>
<linearGradient id="paint0_linear_3539_15082" x1="5.15332" y1="1.12853" x2="10.8333" y2="1.12853" gradientUnits="userSpaceOnUse">
<stop stop-color="#7E43DE"/>
<stop offset="1" stop-color="#4473E9"/>
</linearGradient>
<linearGradient id="paint1_linear_3539_15082" x1="1.30762" y1="3.05138" x2="12.6676" y2="3.05138" gradientUnits="userSpaceOnUse">
<stop stop-color="#7E43DE"/>
<stop offset="1" stop-color="#4473E9"/>
</linearGradient>
<linearGradient id="paint2_linear_3539_15082" x1="1.30762" y1="11.7057" x2="12.6676" y2="11.7057" gradientUnits="userSpaceOnUse">
<stop stop-color="#7E43DE"/>
<stop offset="1" stop-color="#4473E9"/>
</linearGradient>
<linearGradient id="paint3_linear_3539_15082" x1="14.7686" y1="4.49429" x2="17.6086" y2="4.49429" gradientUnits="userSpaceOnUse">
<stop stop-color="#7E43DE"/>
<stop offset="1" stop-color="#4473E9"/>
</linearGradient>
<linearGradient id="paint4_linear_3539_15082" x1="9.96191" y1="7.37846" x2="13.7486" y2="7.37846" gradientUnits="userSpaceOnUse">
<stop stop-color="#7E43DE"/>
<stop offset="1" stop-color="#4473E9"/>
</linearGradient>
<linearGradient id="paint5_linear_3539_15082" x1="5.15332" y1="7.37846" x2="8.94" y2="7.37846" gradientUnits="userSpaceOnUse">
<stop stop-color="#7E43DE"/>
<stop offset="1" stop-color="#4473E9"/>
</linearGradient>
<linearGradient id="paint6_linear_3539_15082" x1="0.345703" y1="7.37846" x2="4.13238" y2="7.37846" gradientUnits="userSpaceOnUse">
<stop stop-color="#7E43DE"/>
<stop offset="1" stop-color="#4473E9"/>
</linearGradient>
</defs>
</svg>
