<svg width="24" height="24" viewBox="0 0 24 24" fill="none" xmlns="http://www.w3.org/2000/svg">
<path d="M19.3675 7.69531L18.002 7.88152L18.0847 8.56428L19.4916 8.35738L19.3675 7.69531Z" fill="white"/>
<path d="M19.3244 7.3232L19.221 6.66113L17.8555 6.84734L17.9382 7.5301L19.3244 7.3232Z" fill="white"/>
<path d="M16.7381 4.38526C16.8416 4.46802 16.9657 4.48871 17.1106 4.48871L19.2623 4.17836C19.5312 4.13698 19.7174 3.86802 19.6761 3.61974C19.6347 3.35078 19.3864 3.16457 19.1174 3.20595L16.9657 3.49561C16.8416 3.5163 16.7175 3.57836 16.6347 3.68181C16.5519 3.78526 16.5312 3.9094 16.5312 4.05423C16.5519 4.19905 16.6347 4.3025 16.7381 4.38526Z" fill="white"/>
<path d="M21.7468 18.8469L19.5537 8.70898L18.1055 8.91588L18.1675 9.80553C18.7055 10.3021 19.0365 11.0262 19.0365 11.8124C19.0365 12.4538 18.8089 13.0538 18.4572 13.509L18.6641 16.1572C18.7468 16.2193 18.8296 16.2814 18.9124 16.3434C19.0986 16.509 19.2641 16.6952 19.3675 16.9021C19.471 17.1297 19.5331 17.3572 19.5331 17.6055C19.5331 18.1021 19.3055 18.5572 18.9124 18.8883L18.8917 18.909L18.9124 19.24C18.9124 19.3021 18.9331 19.3641 18.9331 19.4262C19.0986 20.2124 19.8641 20.709 20.6503 20.5434C21.4158 20.3986 21.9124 19.6331 21.7468 18.8469Z" fill="white"/>
<path d="M19.0622 5.61266L17.7109 5.80957L17.8094 6.48523L19.1607 6.28832L19.0622 5.61266Z" fill="white"/>
<path d="M18.8961 4.58114L17.5449 4.77832L17.6435 5.45391L18.9947 5.25673L18.8961 4.58114Z" fill="white"/>
<path d="M5.89796 14.8544L6.78761 13.6337H8.31864L8.85657 14.3578C9.06346 14.2751 9.27036 14.1923 9.47726 14.1303L8.85657 13.2613L9.33243 11.813L10.7807 11.3372L12.0841 12.2889C12.1048 12.3096 12.1255 12.3096 12.1462 12.3303C12.1255 12.8061 12.0221 13.2406 11.8566 13.6544C11.9807 13.6544 12.1048 13.6544 12.229 13.6544C12.3945 13.6544 12.5807 13.6544 12.7669 13.6751C12.9324 13.1578 13.0152 12.6199 13.0152 12.0613C13.0152 9.06131 10.5738 6.64062 7.5945 6.64062C4.59451 6.64062 2.17383 9.082 2.17383 12.0613C2.17383 14.1716 3.39451 15.9923 5.15313 16.9027C5.25658 16.6958 5.40141 16.5303 5.58761 16.3854C5.8152 16.1992 6.04278 16.0337 6.27037 15.8682L5.89796 14.8544ZM7.88416 8.79234L9.1876 7.84062C9.20829 7.81993 9.22898 7.79924 9.24967 7.77855C9.97381 8.06821 10.6152 8.52338 11.1117 9.12338C11.091 9.14407 11.091 9.16476 11.0704 9.18545L10.5738 10.7165L9.10484 11.1923L7.90485 10.3234V8.79234H7.88416ZM5.87727 7.77855C5.89796 7.79924 5.91865 7.81993 5.93933 7.84062L7.24278 8.79234V10.3441L6.04278 11.213L4.57382 10.7372L4.07727 9.20613C4.07727 9.18545 4.05658 9.16476 4.03589 9.14407C4.53244 8.54407 5.15313 8.06821 5.87727 7.77855ZM5.40141 14.482H3.78762C3.76693 14.482 3.72555 14.482 3.70486 14.5027C3.29107 13.8613 3.04279 13.1165 3.00141 12.3303C3.0221 12.3096 3.04279 12.2889 3.06348 12.2889L4.36693 11.3372L5.8152 11.813L6.29106 13.2613L5.40141 14.482Z" fill="white"/>
<path d="M5.54688 17.6265C5.54688 17.9368 5.6917 18.2265 5.91929 18.4127C6.20894 18.661 6.60204 18.9299 7.03653 19.2196V16.0127C6.60204 16.3023 6.22963 16.592 5.91929 16.8196C5.6917 17.0265 5.54688 17.3161 5.54688 17.6265Z" fill="white"/>
<path d="M7.74023 15.599V19.6542C8.96092 20.3576 10.5333 20.9783 12.2092 20.9783C13.885 20.9783 15.4575 20.3576 16.6988 19.6542V15.599C15.4781 14.8956 13.9057 14.2749 12.2092 14.2749C10.5333 14.2542 8.96092 14.8956 7.74023 15.599ZM12.5609 16.5714V17.2749H13.4506V16.8197C13.4506 16.6335 13.5954 16.468 13.8023 16.468C13.9885 16.468 14.154 16.6128 14.154 16.8197V17.2749H14.9609C15.1471 17.2749 15.3126 17.4197 15.3126 17.6266C15.3126 17.8128 15.1678 17.9783 14.9609 17.9783H14.154V18.4335C14.154 18.6197 14.0092 18.7852 13.8023 18.7852C13.6161 18.7852 13.4506 18.6404 13.4506 18.4335V17.9783H12.5609V18.6818C12.5609 18.868 12.4161 19.0335 12.2092 19.0335C12.023 19.0335 11.8575 18.8887 11.8575 18.6818V17.9783H10.9678V18.4335C10.9678 18.6197 10.823 18.7852 10.6161 18.7852C10.4299 18.7852 10.2644 18.6404 10.2644 18.4335V17.9783H9.47816C9.29195 17.9783 9.12644 17.8335 9.12644 17.6266C9.12644 17.4404 9.27126 17.2749 9.47816 17.2749H10.3057V16.8197C10.3057 16.6335 10.4506 16.468 10.6575 16.468C10.8437 16.468 11.0092 16.6128 11.0092 16.8197V17.2749H11.8988V16.5714C11.8988 16.3852 12.0437 16.2197 12.2506 16.2197C12.4161 16.2197 12.5609 16.3852 12.5609 16.5714Z" fill="white"/>
<path d="M18.4981 16.8401C18.2084 16.5918 17.8153 16.3229 17.3809 16.0332V19.2401C17.8153 18.9504 18.1878 18.6608 18.4981 18.4332C18.7464 18.247 18.8705 17.9573 18.8705 17.647C18.8912 17.316 18.7464 17.0263 18.4981 16.8401Z" fill="white"/>
<path d="M16.698 9.70312C16.6773 10.3652 16.3876 10.9859 15.9324 11.4617C15.4566 11.9376 14.8359 12.2066 14.1738 12.2273C14.2566 12.641 14.4635 13.0135 14.7531 13.3238C15.0635 13.6341 15.4359 13.8204 15.8497 13.9031C15.8704 13.241 16.16 12.6204 16.6152 12.1445C17.0911 11.6686 17.7117 11.3997 18.3738 11.379C18.2911 10.9652 18.0842 10.5928 17.7945 10.2824C17.4842 9.99278 17.1118 9.78588 16.698 9.70312Z" fill="white"/>
<path d="M17.794 13.3223C18.1871 12.9292 18.394 12.412 18.4147 11.874C17.8767 11.8947 17.3595 12.1223 16.9664 12.4947C16.5733 12.8878 16.3664 13.4051 16.3457 13.943C16.8836 13.943 17.4009 13.7154 17.794 13.3223Z" fill="white"/>
<path d="M16.2018 9.66113C15.6638 9.68182 15.1466 9.90941 14.7535 10.2818C14.3604 10.6749 14.1535 11.1922 14.1328 11.7301C14.6707 11.7094 15.188 11.4818 15.5811 11.1094C15.9535 10.7163 16.1811 10.1991 16.2018 9.66113Z" fill="white"/>
</svg>
