<svg width="16" height="16" viewBox="0 0 16 16" fill="none" xmlns="http://www.w3.org/2000/svg">
<path fill-rule="evenodd" clip-rule="evenodd" d="M0 8.37383H1.41495C1.59496 9.536 2.60081 10.4268 3.81308 10.4268C5.02536 10.4268 6.03121 9.536 6.21122 8.37383C6.21122 8.37383 7.36398 8.37383 7.62617 8.37383V10.1339C7.62617 10.3404 7.79354 10.5078 8 10.5078C8.92675 10.5078 9.67914 11.2602 9.67914 12.1869C9.67914 13.1137 8.92675 13.8661 8 13.8661C7.79354 13.8661 7.62617 14.0334 7.62617 14.2399V16H0.934583C0.686714 16 0.449002 15.9015 0.273735 15.7263C0.0984673 15.551 0 15.3133 0 15.0654V8.37383ZM7.62617 0V1.41495C6.46399 1.59495 5.5732 2.60081 5.5732 3.81308C5.5732 5.02536 6.46399 6.03121 7.62617 6.21122C7.62617 6.44705 7.62617 7.39034 7.62617 7.62617H5.86606C5.6596 7.62617 5.49222 7.79354 5.49222 8C5.49222 8.92674 4.73983 9.67914 3.81308 9.67914C2.88634 9.67914 2.13395 8.92674 2.13395 8C2.13395 7.79354 1.96657 7.62617 1.76011 7.62617H0C0 6.16694 0 0.934583 0 0.934583C0 0.686714 0.0984673 0.449002 0.273735 0.273735C0.449002 0.0984674 0.686714 0 0.934583 0H7.62617ZM16 7.62617H14.585C14.405 6.46399 13.3992 5.5732 12.1869 5.5732C10.9746 5.5732 9.96879 6.46399 9.78878 7.62617C9.78878 7.62617 8.63602 7.62617 8.37383 7.62617V5.86606C8.37383 5.6596 8.20647 5.49222 8 5.49222C7.07325 5.49222 6.32086 4.73983 6.32086 3.81308C6.32086 2.88634 7.07325 2.13395 8 2.13395C8.20647 2.13395 8.37383 1.96657 8.37383 1.76011V0H15.0654C15.3133 0 15.551 0.0984674 15.7263 0.273735C15.9015 0.449002 16 0.686714 16 0.934583V7.62617ZM8.37383 16V14.585C9.536 14.405 10.4268 13.3992 10.4268 12.1869C10.4268 10.9746 9.536 9.96879 8.37383 9.78878C8.37383 9.78878 8.37383 8.63602 8.37383 8.37383H10.1339C10.3404 8.37383 10.5078 8.20647 10.5078 8C10.5078 7.07325 11.2602 6.32086 12.1869 6.32086C13.1137 6.32086 13.8661 7.07325 13.8661 8C13.8661 8.20647 14.0334 8.37383 14.2399 8.37383H16V15.0654C16 15.3133 15.9015 15.551 15.7263 15.7263C15.551 15.9015 15.3133 16 15.0654 16H8.37383Z" fill="url(#paint0_linear_3779_8930)"/>
<defs>
<linearGradient id="paint0_linear_3779_8930" x1="0" y1="8" x2="15.7526" y2="8" gradientUnits="userSpaceOnUse">
<stop stop-color="#7E43DE"/>
<stop offset="1" stop-color="#4473E9"/>
</linearGradient>
</defs>
</svg>
