<svg width="14" height="18" viewBox="0 0 14 18" fill="none" xmlns="http://www.w3.org/2000/svg">
<path d="M13.5751 11.3779L11.9481 7.48891V3.52952C11.9481 3.43394 11.9011 3.34448 11.8224 3.29033C11.7987 3.27408 11.2745 2.91985 10.4572 2.86657C10.3543 2.60242 10.1501 2.14164 9.89733 1.9006C9.62606 1.64185 9.10366 1.47959 8.70632 1.38807C8.7196 1.33588 8.71851 1.28003 8.7012 1.22679C8.66705 1.1217 8.57622 1.04509 8.46684 1.02923L7.64192 0.909363L7.273 0.161855C7.22408 0.062746 7.12315 0 7.01265 0C6.90215 0 6.80122 0.062746 6.7523 0.161855L6.38338 0.909363L5.55846 1.02919C5.44908 1.04509 5.35825 1.1217 5.3241 1.22676C5.30679 1.28 5.3057 1.33585 5.31898 1.38803C4.92164 1.47959 4.39924 1.64181 4.12797 1.90056C3.87524 2.14167 3.67096 2.60238 3.56808 2.86654C2.75079 2.91981 2.22657 3.27404 2.20295 3.2903C2.1242 3.34444 2.07717 3.4339 2.07717 3.52949V7.48891L0.450234 11.3779C0.435392 11.4135 0.427734 11.4515 0.427734 11.49V17.7097C0.427734 17.87 0.557726 18 0.718057 18H13.3072C13.4676 18 13.5976 17.87 13.5976 17.7097V11.49C13.5976 11.4515 13.5899 11.4135 13.5751 11.3779ZM1.00838 11.7803H13.0169V13.9372C12.8411 14.1419 12.5831 14.2621 12.3106 14.2621H1.71473C1.44223 14.2621 1.18424 14.1418 1.00838 13.9372V11.7803ZM3.99867 5.27454L4.57056 5.44899C4.64543 5.47178 4.72643 5.46347 4.79513 5.42569C4.86375 5.38799 4.91423 5.32412 4.9351 5.24863L5.06683 4.772L5.68185 4.99271C5.78183 5.02853 5.89342 5.00701 5.97286 4.93639L7.01265 4.01171L8.05244 4.93639C8.13184 5.00698 8.24347 5.02853 8.34345 4.99271L8.95846 4.772L9.0902 5.24863C9.11106 5.32412 9.16158 5.38799 9.23017 5.42569C9.29887 5.46347 9.3798 5.47178 9.45473 5.44899L10.0266 5.27454L9.95104 5.98322H7.92256C7.92967 5.92015 7.93134 5.85185 7.92459 5.77847C7.88913 5.39231 7.64276 5.01659 7.19229 4.66178C7.0869 4.57879 6.9384 4.57879 6.83301 4.66178C6.38254 5.01659 6.13617 5.39234 6.10071 5.77847C6.094 5.85185 6.09567 5.92015 6.10274 5.98322H4.07426L3.99867 5.27454ZM6.69264 5.98322C6.68125 5.94279 6.67344 5.89148 6.67896 5.83153C6.69478 5.65897 6.80924 5.46844 7.01279 5.27313C7.36223 5.60751 7.37076 5.85254 7.33393 5.98319H6.69264V5.98322ZM3.77345 3.44058C3.89821 3.44058 4.00904 3.36074 4.04875 3.24247C4.13722 2.97871 4.34575 2.49532 4.52872 2.3208C4.73928 2.12001 5.35193 1.96051 5.77156 1.88902L5.99445 2.10633L5.85354 2.92794C5.83485 3.03688 5.87963 3.14695 5.96905 3.21187C6.05843 3.2768 6.17699 3.28536 6.27479 3.23398L7.01265 2.84607L7.7505 3.23398C7.793 3.25629 7.83934 3.26733 7.88558 3.26733C7.94578 3.26733 8.0057 3.2486 8.05625 3.21187C8.14567 3.14695 8.19042 3.03688 8.17176 2.92794L8.03085 2.10633L8.25378 1.88902C8.6734 1.96055 9.28606 2.12001 9.49661 2.3208C9.67959 2.49536 9.88811 2.97875 9.97655 3.24236C10.0161 3.36077 10.127 3.44061 10.2519 3.44061C10.7765 3.44061 11.1757 3.60192 11.3675 3.69838V5.98329H10.535L10.6506 4.89963C10.6609 4.8027 10.622 4.70707 10.5469 4.64502C10.4717 4.58296 10.3706 4.56267 10.2772 4.59113L9.57046 4.80669L9.43477 4.31575C9.41325 4.23791 9.36027 4.17255 9.28856 4.13535C9.21685 4.09816 9.13288 4.0926 9.05688 4.11982L8.30956 4.38804L7.20561 3.40628C7.09561 3.30848 6.92973 3.30848 6.81973 3.40628L5.71578 4.38804L4.96845 4.11982C4.89246 4.09264 4.80852 4.09819 4.73677 4.13535C4.66503 4.17252 4.61204 4.23791 4.59056 4.31575L4.45487 4.80669L3.74812 4.59113C3.65485 4.56271 3.55364 4.58296 3.47848 4.64502C3.40332 4.70707 3.36438 4.8027 3.37473 4.89963L3.49031 5.98329H2.65781V3.69846C2.85015 3.60163 3.2492 3.44058 3.77345 3.44058ZM2.56073 7.83755H11.4646L12.8711 11.1997H1.15423L2.56073 7.83755ZM10.6194 17.4194V15.7207C10.6194 15.5604 10.4894 15.4304 10.3291 15.4304H3.69619C3.53586 15.4304 3.40586 15.5604 3.40586 15.7207V17.4194H1.00838V14.6669C1.22333 14.7805 1.46527 14.8427 1.71473 14.8427H12.3106C12.5601 14.8427 12.802 14.7805 13.017 14.6669V17.4194H10.6194Z" fill="url(#paint0_linear_3780_8974)"/>
<path d="M3.56539 10.5867C3.62019 10.6601 3.70648 10.7034 3.79812 10.7034H10.2255C10.3172 10.7034 10.4035 10.6602 10.4583 10.5867C10.5131 10.5132 10.5299 10.4181 10.5038 10.3303L9.95187 8.47512C9.91521 8.35199 9.80206 8.26758 9.67359 8.26758H4.35006C4.22159 8.26758 4.10844 8.35199 4.07178 8.47512L3.51984 10.3303C3.49375 10.4181 3.51062 10.5132 3.56539 10.5867Z" fill="url(#paint1_linear_3780_8974)"/>
<path d="M5.74345 13.8177H8.28145C8.44178 13.8177 8.57177 13.6877 8.57177 13.5274V12.5159C8.57177 12.3556 8.44178 12.2256 8.28145 12.2256H5.74345C5.58312 12.2256 5.45312 12.3556 5.45312 12.5159V13.5274C5.45312 13.6877 5.58312 13.8177 5.74345 13.8177Z" fill="url(#paint2_linear_3780_8974)"/>
<path d="M1.97782 13.8177H4.51582C4.67615 13.8177 4.80614 13.6877 4.80614 13.5274V12.5159C4.80614 12.3556 4.67615 12.2256 4.51582 12.2256H1.97782C1.81749 12.2256 1.6875 12.3556 1.6875 12.5159V13.5274C1.6875 13.6877 1.81749 13.8177 1.97782 13.8177Z" fill="url(#paint3_linear_3780_8974)"/>
<path d="M9.50907 13.8177H12.0471C12.2074 13.8177 12.3374 13.6877 12.3374 13.5274V12.5159C12.3374 12.3556 12.2074 12.2256 12.0471 12.2256H9.50907C9.34874 12.2256 9.21875 12.3556 9.21875 12.5159V13.5274C9.21875 13.6877 9.34874 13.8177 9.50907 13.8177Z" fill="url(#paint4_linear_3780_8974)"/>
<defs>
<linearGradient id="paint0_linear_3780_8974" x1="0.427734" y1="9" x2="13.3939" y2="9" gradientUnits="userSpaceOnUse">
<stop stop-color="#7E43DE"/>
<stop offset="1" stop-color="#4473E9"/>
</linearGradient>
<linearGradient id="paint1_linear_3780_8974" x1="3.50781" y1="9.4855" x2="10.4075" y2="9.4855" gradientUnits="userSpaceOnUse">
<stop stop-color="#7E43DE"/>
<stop offset="1" stop-color="#4473E9"/>
</linearGradient>
<linearGradient id="paint2_linear_3780_8974" x1="5.45313" y1="13.0216" x2="8.52354" y2="13.0216" gradientUnits="userSpaceOnUse">
<stop stop-color="#7E43DE"/>
<stop offset="1" stop-color="#4473E9"/>
</linearGradient>
<linearGradient id="paint3_linear_3780_8974" x1="1.6875" y1="13.0216" x2="4.75792" y2="13.0216" gradientUnits="userSpaceOnUse">
<stop stop-color="#7E43DE"/>
<stop offset="1" stop-color="#4473E9"/>
</linearGradient>
<linearGradient id="paint4_linear_3780_8974" x1="9.21875" y1="13.0216" x2="12.2892" y2="13.0216" gradientUnits="userSpaceOnUse">
<stop stop-color="#7E43DE"/>
<stop offset="1" stop-color="#4473E9"/>
</linearGradient>
</defs>
</svg>
